<svg style="position: absolute; width: 0; height: 0; overflow: hidden;" version="1.1" xmlns="http://www.w3.org/2000/svg" xmlns:xlink="http://www.w3.org/1999/xlink">
  <defs>
    <symbol id="icon-Delivery" viewBox="0 0 32 32">
      <title>Delivery</title>
      <path d="M10.917 25.715c-1.047 0-1.927 0.88-1.927 1.927s0.88 1.927 1.927 1.927c1.047 0 1.927-0.88 1.927-1.927s-0.838-1.927-1.927-1.927zM10.917 28.774c-0.587 0-1.089-0.503-1.089-1.089s0.503-1.089 1.089-1.089c0.587 0 1.089 0.503 1.089 1.089s-0.461 1.089-1.089 1.089zM25.791 24.5l-10.726 1.927c-0.545-1.802-2.179-3.1-4.148-3.1-0.042 0-0.084 0-0.126 0l-3.98-20.949c-0.042-0.126-0.126-0.251-0.251-0.293l-4.483-2.053c-0.21-0.084-0.461 0-0.545 0.209s0 0.461 0.21 0.545l4.315 1.969 3.938 20.697c-1.927 0.419-3.352 2.137-3.352 4.232 0 2.388 1.927 4.315 4.315 4.315s4.315-1.969 4.315-4.357c0-0.126 0-0.251 0-0.419l10.726-1.927c0.209-0.042 0.377-0.251 0.335-0.503s-0.293-0.335-0.545-0.293zM10.917 31.162c-1.927 0-3.478-1.55-3.478-3.477s1.55-3.477 3.478-3.477c1.927 0 3.477 1.55 3.477 3.477s-1.55 3.477-3.477 3.477zM28.682 11.051c-0.042-0.21-0.251-0.377-0.503-0.335l-16.298 3.059c-0.21 0.042-0.377 0.251-0.335 0.503l1.676 8.924c0 0.126 0.084 0.209 0.168 0.251s0.168 0.084 0.251 0.084c0.042 0 0.042 0 0.084 0l16.298-3.059c0.126 0 0.209-0.084 0.251-0.168s0.084-0.209 0.084-0.293l-1.676-8.966zM13.976 22.615l-1.55-8.086 15.46-2.891 1.55 8.086-15.46 2.891zM11.378 12.685c0.042 0 0.042 0 0.084 0l9.678-1.802c0.126 0 0.209-0.084 0.251-0.168s0.084-0.21 0.084-0.293l-1.676-8.924c-0.042-0.21-0.251-0.377-0.503-0.335l-9.678 1.802c-0.126 0-0.21 0.084-0.251 0.168s-0.084 0.209-0.084 0.293l1.676 8.924c0.084 0.21 0.251 0.335 0.419 0.335zM19.045 2.001l1.508 8.128-8.84 1.634-1.508-8.128 8.84-1.634z"/>
    </symbol>
    <symbol id="icon-Secure" viewBox="0 0 20 20">
      <title>Secure</title>
      <g>
        <path d="M5.28,9.461a.375.375,0,0,0-.486.57L9.2,13.784l6.047-6.947a.375.375,0,1,0-.566-.492L9.121,12.731Z"/>
        <path d="M9.993,0,1,2.662l0,8.365S.824,17.414,9.993,20h.013C19.175,17.414,19,11.027,19,11.027L19,2.662Zm8.253,11.048c0,.057.064,5.742-8.247,8.174-8.251-2.413-8.25-7.942-8.246-8.2l0-7.8L9.993.782l8.259,2.44Z"/>
      </g>
    </symbol>
    <symbol id="icon-Return-pack" viewBox="0 0 20 20">
      <title>Return-pack</title>
      <g>
        <path d="M14.744,14.269V6.937l.054-.061L12.578,4.9H6.963L4.743,6.876l.055.062v7.331Zm-.75-.75H5.548V7.657h8.446ZM7.249,5.653h5.043L13.7,6.907H5.837Z"/>
        <path d="M19.125,10a9.13,9.13,0,1,1-2.778-6.53H13.68v.75h3.905V.314h-.75V2.9a9.841,9.841,0,1,0,3.04,7.1Z"/>
      </g>
    </symbol>
    <symbol id="icon-Van" viewBox="0 0 32 32">
      <title>Van</title>
      <path d="M30.64 23.617h-1.738c-0.378-1.096-1.398-1.927-2.645-1.927s-2.267 0.793-2.645 1.927h-1.171v-11.863h4.080c2.531 0 4.080 1.889 4.080 4.911v6.952h0.038zM26.257 25.997c-0.831 0-1.511-0.68-1.511-1.511s0.68-1.511 1.511-1.511c0.832 0 1.511 0.68 1.511 1.511s-0.68 1.511-1.511 1.511zM21.195 23.617h-7.254c-0.378-1.096-1.398-1.927-2.645-1.927-1.209 0-2.267 0.793-2.645 1.927h-2.494v-17.833h15.037v17.833zM11.296 25.997c-0.831 0-1.511-0.68-1.511-1.511s0.68-1.511 1.511-1.511c0.831 0 1.511 0.68 1.511 1.511s-0.68 1.511-1.511 1.511zM26.559 10.507h-4.080v-6.007h-17.53v6.763h-4.949v1.247h4.949v2.531h-3.929v1.247h3.929v2.531h-3.022v1.247h3.022v4.76h3.627c0.189 1.36 1.36 2.38 2.758 2.38s2.569-1.020 2.758-2.38h9.483c0.189 1.36 1.36 2.38 2.758 2.38s2.569-1.020 2.758-2.38h2.909v-8.198c-0.076-3.702-2.191-6.12-5.441-6.12z"/>
    </symbol>
    <symbol id="icon-Hamburger" viewBox="0 0 32 32">
      <title>Hamburger</title>
      <path d="M0 4h32v3h-32v-3zM0 14h32v3h-32v-3zM0 25h32v3h-32v-3z"/>
    </symbol>
    <symbol id="icon-Tag" viewBox="0 0 32 32">
      <title>Tag</title>
      <path d="M31.232 0c0.294 0 0.533 0.239 0.533 0.533v12.946c0 0.14-0.055 0.341-0.155 0.441l-17.582 17.792c-0.1 0.101-0.236 0.289-0.378 0.289h-0.001c-0.141 0-0.277-0.187-0.377-0.286l-13.117-13.267c-0.1-0.1-0.156-0.236-0.156-0.378s0.057-0.277 0.157-0.378l17.664-17.536c0.1-0.1 0.235-0.155 0.376-0.155h13.035zM30.698 13.26v-12.193h-12.283l-17.129 17.005 12.362 12.378 17.049-17.189zM24.831 9.777c-1.471 0-2.667-1.196-2.667-2.667s1.196-2.667 2.667-2.667c1.47 0 2.667 1.196 2.667 2.667s-1.196 2.667-2.667 2.667zM24.831 5.511c-0.882 0-1.6 0.718-1.6 1.6s0.718 1.6 1.6 1.6c0.882 0 1.6-0.718 1.6-1.6s-0.718-1.6-1.6-1.6z"/>
    </symbol>
    <symbol id="icon-Star-border" viewBox="0 0 32 32">
      <title>Star border</title>
      <path d="M25.412 31.225c-0.227 0-0.459-0.063-0.689-0.188l-8.392-4.546c-0.114-0.061-0.547-0.061-0.662 0.001l-8.391 4.544c-0.567 0.308-1.178 0.22-1.533-0.192-0.235-0.271-0.329-0.651-0.268-1.069l1.399-9.44c0.029-0.197-0.090-0.572-0.228-0.716l-6.241-6.527c-0.366-0.383-0.493-0.851-0.347-1.284s0.529-0.73 1.052-0.813l9.033-1.453c0.185-0.030 0.49-0.254 0.573-0.42l4.183-8.367c0.24-0.48 0.641-0.755 1.1-0.755s0.86 0.275 1.1 0.755l4.183 8.367c0.084 0.166 0.388 0.391 0.572 0.42l9.035 1.453c0.522 0.084 0.905 0.38 1.051 0.813s0.019 0.902-0.347 1.284l-6.241 6.527c-0.138 0.144-0.257 0.519-0.228 0.716l1.399 9.44c0.061 0.417-0.033 0.796-0.268 1.069-0.211 0.245-0.51 0.38-0.843 0.38zM16.001 24.791c0.406 0 0.801 0.092 1.11 0.259l7.671 4.155-1.278-8.63c-0.103-0.7 0.176-1.578 0.665-2.090l5.729-5.991-8.303-1.336c-0.709-0.114-1.456-0.663-1.778-1.305l-3.817-7.634-3.817 7.634c-0.322 0.642-1.069 1.191-1.779 1.305l-8.301 1.336 5.729 5.991c0.489 0.511 0.769 1.39 0.665 2.090l-1.279 8.63 7.671-4.154c0.311-0.167 0.706-0.26 1.112-0.26z"/>
    </symbol>
    <symbol id="icon-Callcenter" viewBox="0 0 32 32">
      <title>Callcenter</title>
      <path d="M29.474 14.758c-0.297-7.362-6.264-13.258-13.56-13.258-7.31 0-13.286 5.918-13.562 13.299-1.348 0.344-2.351 1.586-2.351 3.065v3.316c0 1.582 1.146 2.892 2.635 3.123 0.581 2.044 2.403 5.287 5.956 5.287h4.074c0.23 0.536 0.754 0.911 1.363 0.911 0.82 0 1.487-0.68 1.487-1.516s-0.667-1.516-1.487-1.516c-0.61 0-1.133 0.376-1.363 0.912h-4.074c-3.001 0-4.292-2.835-4.726-4.138 1.344-0.347 2.343-1.587 2.343-3.063v-3.316c0-1.594-1.164-2.912-2.67-3.128 0.308-6.684 5.74-12.026 12.375-12.026 6.643 0 12.081 5.357 12.374 12.053-1.422 0.288-2.496 1.569-2.496 3.101v3.316c0 1.744 1.392 3.163 3.104 3.163s3.105-1.419 3.105-3.163v-3.316c-0-1.542-1.091-2.828-2.526-3.105zM14.029 28.677c0.166 0 0.302 0.138 0.302 0.308s-0.135 0.307-0.302 0.307-0.302-0.138-0.302-0.307c0-0.17 0.136-0.308 0.302-0.308zM5.023 17.864v3.316c0 1.078-0.861 1.955-1.919 1.955s-1.918-0.877-1.918-1.955v-3.316c0-1.078 0.86-1.954 1.918-1.954s1.919 0.877 1.919 1.954zM30.813 21.179c0 1.078-0.861 1.955-1.919 1.955s-1.918-0.877-1.918-1.955v-3.316c0-1.078 0.86-1.954 1.918-1.954s1.919 0.877 1.919 1.954v3.316z"/>
    </symbol>
    <symbol id="icon-Arrow-down" viewBox="0 0 32 32">
      <title>Arrow down</title>
      <path d="M3.375 6.337l-3.403 3.403 16.044 16.046 15.956-15.954-3.405-3.403-12.551 12.551z"/>
    </symbol>
    <symbol id="icon-Angle-left" viewBox="0 0 12 32">
      <title>Angle left</title>
      <path d="M11.196 9.714c0 0.143-0.071 0.304-0.179 0.411l-7.018 7.018 7.018 7.018c0.107 0.107 0.179 0.268 0.179 0.411s-0.071 0.304-0.179 0.411l-0.893 0.893c-0.107 0.107-0.268 0.179-0.411 0.179s-0.304-0.071-0.411-0.179l-8.321-8.321c-0.107-0.107-0.179-0.268-0.179-0.411s0.071-0.304 0.179-0.411l8.321-8.321c0.107-0.107 0.268-0.179 0.411-0.179s0.304 0.071 0.411 0.179l0.893 0.893c0.107 0.107 0.179 0.25 0.179 0.411z"/>
    </symbol>
    <symbol id="icon-Angle-right" viewBox="0 0 11 32">
      <title>Angle right</title>
      <path d="M10.625 17.143c0 0.143-0.071 0.304-0.179 0.411l-8.321 8.321c-0.107 0.107-0.268 0.179-0.411 0.179s-0.304-0.071-0.411-0.179l-0.893-0.893c-0.107-0.107-0.179-0.25-0.179-0.411 0-0.143 0.071-0.304 0.179-0.411l7.018-7.018-7.018-7.018c-0.107-0.107-0.179-0.268-0.179-0.411s0.071-0.304 0.179-0.411l0.893-0.893c0.107-0.107 0.268-0.179 0.411-0.179s0.304 0.071 0.411 0.179l8.321 8.321c0.107 0.107 0.179 0.268 0.179 0.411z"/>
    </symbol>

    <symbol id="icon-Phone" viewBox="0 0 20 20">
      <title>Phone</title>
      <path d="M12.66,20A12.6,12.6,0,0,1,3.9,16.093C-.5,11.658-1.289,5.29,2.116,1.6A5.4,5.4,0,0,1,2.592,1,4.013,4.013,0,0,1,4.109.045a.8.8,0,0,1,.837.2L9.419,4.761l-.056.209a4.116,4.116,0,0,1-1.021,1.8,4.054,4.054,0,0,1-3.17,1.19,8.938,8.938,0,0,0,2.5,4.541,7.745,7.745,0,0,0,4.2,2.227,4.228,4.228,0,0,1,1.206-3.359,4.163,4.163,0,0,1,1.851-1.061l.209-.058,4.629,4.672a.8.8,0,0,1,.194.8,3.941,3.941,0,0,1-.978,1.594c-.116.117-.374.325-.482.411A8.166,8.166,0,0,1,12.66,20ZM4.417.775a2.871,2.871,0,0,0-1.3.752,5.8,5.8,0,0,0-.426.543C-.466,5.5.308,11.413,4.427,15.561,8.575,19.75,14.648,20.486,17.963,17.2l.075-.063c.093-.074.318-.253.42-.356a3.229,3.229,0,0,0,.8-1.3l-.016-.034L14.922,11.1a3.411,3.411,0,0,0-1.316.807,3.466,3.466,0,0,0-.923,3.181l.11.5-.509-.048a8.4,8.4,0,0,1-5.14-2.5A9.484,9.484,0,0,1,4.359,7.561L4.3,7.049l.5.1a3.3,3.3,0,0,0,3.006-.911A3.353,3.353,0,0,0,8.58,4.978Z"/>
    </symbol>
    <symbol id="icon-Cancel" viewBox="0 0 32 32">
      <title>Cancel</title>
      <path d="M15.634 13.809l13.692-13.692 1.826 1.826-13.692 13.692 13.692 13.692-1.826 1.826-13.692-13.692-13.692 13.692-1.826-1.826 13.692-13.692-13.692-13.692 1.826-1.826 13.692 13.692z"/>
    </symbol>
    <symbol id="icon-Cross" viewBox="0 0 32 32">
      <title>Cross</title>
      <path d="M17 15h15v2h-15v15h-2v-15h-15v-2h15v-15h2v15z"/>
    </symbol>
    <symbol id="icon-Heart-border" viewBox="0 0 32 32">
      <title>Heart-border</title>
      <path d="M9.224 2.81c-2.843 0-5.771 1.797-7.14 4.455-0.892 1.73-1.83 5.28 1.91 9.601 2.514 2.902 5.409 5.64 8.206 8.287 1.28 1.21 2.558 2.418 3.8 3.64 1.242-1.221 2.517-2.427 3.795-3.637 2.801-2.649 5.695-5.386 8.211-8.29 2.757-3.187 3.444-6.581 1.931-9.559-1.453-2.859-4.718-4.763-7.804-4.495-2.685 0.222-4.692 2.021-5.65 5.067-0.084 0.267-0.333 0.451-0.615 0.451h-0.005c-0.283-0.003-0.531-0.19-0.612-0.462-0.884-2.996-2.804-4.782-5.407-5.028-0.206-0.019-0.414-0.029-0.62-0.029zM15.961 30.305c-0.164 0-0.329-0.063-0.454-0.187-1.366-1.356-2.777-2.691-4.192-4.030-2.82-2.669-5.739-5.428-8.293-8.38-3.096-3.574-3.854-7.596-2.083-11.034 1.701-3.3 5.494-5.444 9.026-5.117 2.612 0.246 4.705 1.809 5.919 4.358 1.282-2.593 3.455-4.165 6.143-4.387 3.572-0.301 7.38 1.888 9.060 5.194 1.739 3.426 0.971 7.43-2.108 10.986-2.556 2.952-5.475 5.713-8.298 8.383-1.414 1.337-2.825 2.67-4.188 4.027-0.135 0.134-0.324 0.188-0.493 0.185-0.013 0.002-0.026 0.002-0.039 0.002z"/>
    </symbol>
    <symbol id="icon-Heart-fill" viewBox="0 0 32 32">
      <title>Heart-fill</title>
      <path d="M15.961 30.305c-0.164 0-0.329-0.063-0.454-0.187-1.364-1.356-2.775-2.691-4.191-4.030-2.822-2.669-5.739-5.428-8.295-8.38-3.096-3.574-3.854-7.596-2.083-11.034 1.701-3.3 5.494-5.446 9.028-5.119 2.611 0.25 4.703 1.81 5.917 4.36 1.284-2.593 3.456-4.165 6.143-4.387 3.572-0.301 7.382 1.889 9.060 5.194 1.739 3.426 0.971 7.43-2.107 10.986-2.558 2.954-5.476 5.715-8.298 8.383-1.414 1.337-2.825 2.67-4.189 4.027-0.134 0.134-0.324 0.188-0.493 0.185-0.013 0.002-0.026 0.002-0.039 0.002z"/>
    </symbol>
    <symbol id="icon-Certified" viewBox="0 0 32 32">
      <title>Certified</title>
      <path d="M2.5 32v-32h26.862v32h-26.862zM18.263 10.226l1.779 3.845-1.835-0.683-0.882 1.915-1.251-3.157-1.096 3.157-1.101-1.915-2.056 0.683 1.613-4.205c-0.398-0.526-0.643-1.176-0.643-1.886 0-1.734 1.406-3.141 3.141-3.141s3.141 1.406 3.141 3.141c0 0.83-0.33 1.581-0.856 2.142l0.046 0.104zM15.932 6.119c-1.026 0-1.861 0.834-1.861 1.861 0 1.026 0.835 1.859 1.861 1.859s1.859-0.834 1.859-1.859c0-1.027-0.834-1.861-1.859-1.861zM7.932 19.488v-1.282h15.998v1.282h-15.998zM7.932 22.859v-1.282h15.998v1.282h-15.998zM10.775 26.23v-1.282h10.314v1.282h-10.314zM3.78 30.72h24.302v-29.44h-24.302v29.44z"/>
    </symbol>
    <symbol id="icon-Pinpoint" viewBox="0 0 32 32">
      <title>Pinpoint</title>
      <path d="M15.667 5.333c-2.938 0-5.333 2.397-5.333 5.334 0 2.936 2.395 5.333 5.333 5.333s5.333-2.397 5.333-5.333c0-2.938-2.395-5.334-5.333-5.334zM25.646 14.397l-7.582 16.123c-0.438 0.915-1.397 1.48-2.397 1.48s-1.958-0.565-2.374-1.48l-7.605-16.123c-0.541-1.147-0.688-2.459-0.688-3.73 0-5.898 4.77-10.667 10.667-10.667s10.667 4.77 10.667 10.667c0 1.27-0.147 2.582-0.688 3.73z"/>
    </symbol>
    <symbol id="icon-Mail" viewBox="0 0 20 20">
      <title>Mail</title>
      <path d="M19.625,1.275H.375A.375.375,0,0,0,0,1.65V18.6a.375.375,0,0,0,.375.375h19.25A.375.375,0,0,0,20,18.6V1.65A.375.375,0,0,0,19.625,1.275Zm-.89.75L10,9.858,1.265,2.025ZM.75,18.226V2.571l9,8.07a.375.375,0,0,0,.5,0l9-8.07V18.226Z"/>
    </symbol>
    <symbol id="icon-User" viewBox="0 0 32 32">
      <title>User</title>
      <path d="M31.85 29.745c0.161 0.506-0.119 1.050-0.627 1.209-0.505 0.163-1.050-0.119-1.211-0.627-1.759-5.542-6.564-9.266-11.959-9.266h-4.209c-5.393 0-10.203 3.723-11.962 9.266-0.13 0.41-0.51 0.673-0.918 0.673-0.096 0-0.195-0.014-0.291-0.046-0.508-0.159-0.788-0.703-0.627-1.209 2.015-6.347 7.561-10.611 13.799-10.611h4.209c6.24 0 11.784 4.265 13.797 10.611zM15.949 18.442c-4.808 0-8.721-3.913-8.721-8.721s3.913-8.721 8.721-8.721c4.808 0 8.721 3.913 8.721 8.721s-3.913 8.721-8.721 8.721zM15.949 2.927c-3.746 0-6.793 3.047-6.793 6.793s3.047 6.793 6.793 6.793c3.746 0 6.793-3.047 6.793-6.793s-3.047-6.793-6.793-6.793z"/>
    </symbol>
    <symbol id="icon-Cart" viewBox="0 0 32 32">
      <title>Cart</title>
      <path d="M21.934 20.249l2.3-11.861-22.070-0.152 2.209 10.031 17.561 1.982zM31.026 1.5c0.532 0 0.963 0.431 0.963 0.961 0 0.532-0.431 0.963-0.963 0.963h-3.869l-3.503 18.065c-0.088 0.457-0.488 0.779-0.944 0.779-0.037 0-0.074-0.002-0.109-0.005l-19.129-2.159c-0.41-0.046-0.744-0.348-0.833-0.751l-2.617-11.882c-0.063-0.285 0.007-0.585 0.191-0.812 0.186-0.228 0.529-0.331 0.756-0.357l23.637 0.163 0.812-4.186c0.088-0.453 0.485-0.779 0.945-0.779h4.662zM20.051 23.085c1.929 0 3.496 1.569 3.496 3.498 0 1.927-1.567 3.498-3.496 3.498s-3.496-1.57-3.496-3.498c0-1.929 1.567-3.498 3.496-3.498zM20.051 28.155c0.867 0 1.57-0.706 1.57-1.572 0-0.868-0.704-1.572-1.57-1.572s-1.57 0.704-1.57 1.572c0 0.867 0.704 1.572 1.57 1.572zM6.197 23.085c1.929 0 3.498 1.569 3.498 3.498 0 1.927-1.569 3.498-3.498 3.498-1.927 0-3.496-1.57-3.496-3.498 0-1.929 1.569-3.498 3.496-3.498zM6.197 28.155c0.867 0 1.572-0.706 1.572-1.572 0-0.868-0.705-1.572-1.572-1.572s-1.57 0.704-1.57 1.572c0 0.867 0.704 1.572 1.57 1.572z"/>
    </symbol>
    <symbol id="icon-Search" viewBox="0 0 32 32">
      <title>Search</title>
      <path d="M13.709 23.361c-2.85-0.128-5.478-1.36-7.403-3.466s-2.912-4.835-2.782-7.685c0.128-2.85 1.358-5.48 3.464-7.403 1.983-1.813 4.522-2.797 7.191-2.797 0.165 0 0.329 0.004 0.494 0.011 2.85 0.128 5.478 1.36 7.403 3.466 1.925 2.108 2.914 4.835 2.786 7.685-0.13 2.85-1.36 5.48-3.466 7.405-2.106 1.923-4.824 2.917-7.687 2.784zM29.648 30.333l-7.094-8.107c0.066-0.057 0.135-0.106 0.199-0.165 2.503-2.287 3.965-5.411 4.118-8.798 0.152-3.385-1.022-6.63-3.309-9.133s-5.411-3.965-8.8-4.117c-3.358-0.157-6.628 1.022-9.131 3.309s-3.965 5.411-4.118 8.796c-0.152 3.387 1.024 6.632 3.31 9.133 2.285 2.503 5.411 3.967 8.796 4.118 0.196 0.009 0.391 0.013 0.585 0.013 2.409 0 4.727-0.676 6.736-1.945l7.193 8.22c0.199 0.227 0.475 0.342 0.757 0.342 0.236 0 0.472-0.080 0.662-0.249 0.419-0.366 0.461-1.002 0.095-1.419z"/>
    </symbol>
    <symbol id="icon-Arrow_Back" viewBox="0 0 24 24">
      <title>Arrow Back</title>
      <path d="M20.016 11.016v1.969h-12.188l5.578 5.625-1.406 1.406-8.016-8.016 8.016-8.016 1.406 1.406-5.578 5.625h12.188z"/>
    </symbol>
    <symbol id="icon-Map" viewBox="0 0 32 32">
      <title>map</title>
      <path d="M21 6l-10-4-11 4v24l11-4 10 4 11-4v-24l-11 4zM12 4.554l8 3.2v19.692l-8-3.2v-19.692zM2 7.401l8-2.909v19.744l-8 2.909v-19.744zM30 24.599l-8 2.909v-19.744l8-2.909v19.744z"/>
    </symbol>
    <symbol id="icon-Check" viewBox="0 0 32 32">
      <title>check</title>
      <path d="M9.156 20.472c-0.444-0.001-0.847-0.18-1.14-0.468l-7.524-7.332c-0.305-0.297-0.494-0.711-0.494-1.17 0-0.902 0.731-1.634 1.634-1.634 0.444 0 0.846 0.177 1.14 0.464l6.348 6.192 12.072-12.528c0.302-0.319 0.728-0.517 1.2-0.517 0.912 0 1.651 0.739 1.651 1.651 0 0.44-0.172 0.839-0.452 1.135l-13.271 13.703c-0.298 0.311-0.716 0.504-1.18 0.504-0.007 0-0.014-0-0.022-0z"/>
    </symbol>
    <symbol id="icon-List" viewBox="0 0 24 32">
      <path d="M0 18h4v-4h-4v4zM0 10h4v-4h-4v4zM0 26h4v-4h-4v4zM8 18h16v-4h-16v4zM8 10h16v-4h-16v4zM8 26h16v-4h-16v4z"/>
    </symbol>
    <symbol id="icon-Grid" viewBox="0 0 32 32">
      <path d="M12.8 6.4h-4.8c-0.885 0-1.6 0.715-1.6 1.6v4.8c0 0.883 0.715 1.6 1.6 1.6h4.8c0.885 0 1.6-0.717 1.6-1.6v-4.8c0-0.883-0.715-1.6-1.6-1.6zM24 6.4h-4.8c-0.885 0-1.6 0.715-1.6 1.6v4.8c0 0.883 0.715 1.6 1.6 1.6h4.8c0.885 0 1.6-0.717 1.6-1.6v-4.8c0-0.883-0.715-1.6-1.6-1.6zM12.8 17.6h-4.8c-0.885 0-1.6 0.715-1.6 1.6v4.8c0 0.883 0.715 1.6 1.6 1.6h4.8c0.885 0 1.6-0.717 1.6-1.6v-4.8c0-0.883-0.715-1.6-1.6-1.6zM24 17.6h-4.8c-0.885 0-1.6 0.715-1.6 1.6v4.8c0 0.883 0.715 1.6 1.6 1.6h4.8c0.885 0 1.6-0.717 1.6-1.6v-4.8c0-0.883-0.715-1.6-1.6-1.6z"/>
    </symbol>
    <symbol id="icon-Return" viewBox="0 0 32 32">
      <title>icon Return</title>
      <path d="M10.121 15.777l3.799-2.785c0.161-0.117 0.265-0.307 0.265-0.52 0-0.355-0.287-0.641-0.641-0.641-0.141 0-0.272 0.045-0.377 0.123l-5.423 3.935c-0.16 0.117-0.264 0.305-0.264 0.517 0 0.149 0.051 0.287 0.137 0.396l3.951 5.167c0.119 0.156 0.304 0.256 0.512 0.256 0.353 0 0.64-0.287 0.64-0.64 0-0.145-0.048-0.279-0.129-0.385l-3.199-4.159c6.033 0.069 11.185 3.773 13.372 9.023 0.144 0.324 0.372 0.479 0.636 0.479 0.365 0 0.663-0.296 0.663-0.663 0-0.101-0.023-0.197-0.064-0.284-2.364-5.567-7.647-9.475-13.877-9.817zM32 8v-0.384h-0.384l-7.52-7.616h-16.192l-7.52 7.616h-0.384v24.384h32v-24zM23.568 1.28l6.256 6.4h-13.184v-6.4h6.928zM8.432 1.28h6.928v6.4h-13.184l6.256-6.4zM30.736 30.816h-29.472v-21.92h29.472v21.92z"/>
    </symbol>
    <symbol id="icon-Calc" viewBox="0 0 32 32">
      <title>icon Calc</title>
      <path d="M0 6.716v18.568c0.003 3.708 3.008 6.713 6.716 6.716h18.568c3.708-0.003 6.713-3.008 6.716-6.716v-18.568c-0.003-3.708-3.008-6.713-6.716-6.716h-18.568c-3.708 0.003-6.713 3.008-6.716 6.716v0zM30.37 6.716v18.568c0 0.001 0 0.003 0 0.005 0 2.806-2.275 5.081-5.081 5.081-0.002 0-0.003 0-0.005 0h-18.568c-0.001 0-0.003 0-0.005 0-2.806 0-5.081-2.275-5.081-5.081 0-0.002 0-0.003 0-0.005v0-18.568c0-0.001 0-0.003 0-0.005 0-2.806 2.275-5.081 5.081-5.081 0.002 0 0.003 0 0.005 0h18.568c0.001 0 0.003 0 0.005 0 2.806 0 5.081 2.275 5.081 5.081 0 0.002 0 0.003 0 0.005v-0zM12.741 20.938l-2.37 2.37 2.37 2.37-1.185 1.185-2.37-2.37-2.37 2.37-1.185-1.185 2.37-2.37-2.37-2.37 1.185-1.185 2.37 2.37 2.37-2.37zM8.395 8.642v-3.309h1.63v3.309h3.309v1.63h-3.309v3.309h-1.63v-3.309h-3.309v-1.63zM19.506 24.395h7.062v1.63h-7.062zM19.506 20.494h7.062v1.63h-7.062zM25.975 10.272h-7.062v-1.63h7.062z"/>
    </symbol>
    <symbol id="icon-External-link" viewBox="0 0 32 32">
      <title>external link</title>
      <path d="M24 16c-0.733 0-1.333 0.6-1.333 1.333v8c0 0.733-0.6 1.333-1.333 1.333h-14.667c-0.733 0-1.333-0.6-1.333-1.333v-14.667c0-0.733 0.6-1.333 1.333-1.333h8c0.733 0 1.333-0.6 1.333-1.333s-0.6-1.333-1.333-1.333h-8c-2.208 0-4 1.792-4 4v14.667c0 2.208 1.792 4 4 4h14.667c2.208 0 4-1.792 4-4v-8c0-0.733-0.6-1.333-1.333-1.333z"/>
      <path d="M29.333 3.95c0 0 0 0 0 0 0-0.008 0-0.008 0-0.017 0 0 0-0.008 0-0.008s0-0.008 0-0.008c0 0 0-0.008 0-0.008s0 0 0 0c-0.008-0.142-0.042-0.275-0.092-0.4 0 0 0 0 0-0.008 0 0 0 0 0-0.008 0 0 0-0.008-0.008-0.008 0 0 0 0 0 0-0.050-0.125-0.125-0.233-0.208-0.342 0 0 0 0 0 0s-0.008-0.008-0.008-0.008c0 0 0 0 0 0s-0.008-0.008-0.008-0.008-0.008-0.008-0.008-0.008 0 0 0-0.008c-0.033-0.033-0.058-0.067-0.092-0.092 0 0 0 0-0.008 0 0 0-0.008-0.008-0.008-0.008s-0.008 0-0.008-0.008c0 0 0 0-0.008 0 0 0-0.008-0.008-0.008-0.008s0 0 0 0c-0.1-0.092-0.217-0.158-0.342-0.208 0 0 0 0 0 0s-0.008 0-0.008 0c0 0 0 0-0.008 0 0 0 0 0-0.008 0-0.125-0.050-0.258-0.083-0.4-0.092 0 0 0 0 0 0s-0.008 0-0.008 0c0 0-0.008 0-0.008 0s-0.008 0-0.008 0c0 0-0.008 0-0.008 0s0 0-0.008 0c-0.017 0-0.033 0-0.050 0h-8c-0.733 0-1.333 0.6-1.333 1.333s0.6 1.333 1.333 1.333h4.783l-12.4 12.367c-0.517 0.517-0.517 1.367 0 1.883 0.258 0.258 0.6 0.392 0.942 0.392s0.683-0.133 0.942-0.392l12.392-12.392v4.783c0 0.733 0.6 1.333 1.333 1.333s1.333-0.6 1.333-1.333v-8c0-0.017 0-0.033 0-0.050z"/>
    </symbol>
    <symbol id="icon-Return-2" viewBox="0 0 32 32">
      <title>return 2</title>
      <path d="M8.827 21.98h14.346v-9.255h-14.346v9.255zM12.051 9.416l-2.493 2.346h12.919l-2.394-2.346h-8.032zM11.659 8.453h8.828l3.665 3.59v10.9h-16.302v-10.906l3.81-3.585zM31.945 15.441c0.011 0.244 0.017 0.491 0.017 0.738 0 8.724-7.169 15.821-15.981 15.821s-15.981-7.098-15.981-15.821c0-8.724 7.169-15.821 15.981-15.821 4.073 0 8.007 1.562 10.959 4.312l-0.221-4.324 1.066-0.052 0.322 6.334-6.404-0.142 0.023-1.057 4.73 0.106c-2.791-2.689-6.566-4.217-10.476-4.217-8.277 0-15.012 6.667-15.012 14.861s6.734 14.861 15.012 14.861c8.277 0 15.012-6.667 15.012-14.861 0-0.232-0.005-0.464-0.016-0.693-0.012-0.265 0.194-0.49 0.462-0.502 0.263-0.012 0.494 0.193 0.506 0.458z"/>
    </symbol>
    <symbol id="icon-Protect" viewBox="0 0 25 32">
      <title>protect</title>
      <path d="M24.216 3.939c0.206 0.065 0.347 0.254 0.35 0.47v15c0 3.85-3.173 9.45-12.116 12.563-0.108 0.038-0.225 0.038-0.333 0-8.943-3.113-12.116-8.713-12.116-12.56v-15c-0.001-0.213 0.133-0.402 0.333-0.473l11.786-3.913c0.103-0.034 0.214-0.034 0.317 0l11.78 3.913zM23.549 19.409l0.010-14.633-11.28-3.75-11.28 3.75v14.633c0 3.5 2.96 8.61 11.27 11.56 8.32-2.95 11.28-8.060 11.28-11.56zM6.733 15.762l3.5 3.503 7.593-7.6c0.197-0.196 0.516-0.195 0.712 0.002s0.195 0.516-0.002 0.712l-7.95 7.953c-0.195 0.195-0.511 0.195-0.707 0l-3.853-3.863c-0.184-0.197-0.178-0.504 0.012-0.694s0.497-0.196 0.694-0.012z"/>
    </symbol>
    <symbol id="icon-Delivery" viewBox="0 0 20 20">
      <title>delivery</title>
      <g>
        <path d="M5.932,16.009a.982.982,0,1,0,.982.982A.982.982,0,0,0,5.932,16.009Zm0,1.214a.232.232,0,1,1,.232-.232A.232.232,0,0,1,5.932,17.223Z"/>
        <path d="M13.665,6.335,12.464.264,5.43,1.656l1.2,6.07Zm-1.792-5.19.911,4.6-5.562,1.1-.91-4.6Z"/>
        <path d="M7.966,14.542l11.96-2.367L18.718,6.068,6.757,8.435Zm11.079-2.957L8.556,13.661,7.639,9.025,18.128,6.949Z"/>
        <path d="M16.058,14.725,8.641,16.059a.122.122,0,0,0-.017.007,2.847,2.847,0,0,0-2.312-1.895c-.455-2.141-.834-4.176-1.2-6.144C4.757,6.094,4.387,4.1,3.935,1.95a.374.374,0,0,0-.2-.261L.611.187A.375.375,0,0,0,.286.863L3.239,2.284c.433,2.069.791,4.005,1.138,5.879.356,1.924.728,3.917,1.17,6.008a2.853,2.853,0,1,0,3.244,2.821c0-.067-.015-.129-.019-.2h0l7.417-1.334a.375.375,0,1,0-.133-.738ZM5.932,19.1a2.11,2.11,0,1,1,2.109-2.109A2.111,2.111,0,0,1,5.932,19.1Z"/>
      </g>
    </symbol>
    <symbol id="icon-Van" viewBox="0 0 45 32">
      <title>van</title>
      <path d="M15.39,6.088H12.739V1.838a.375.375,0,0,0-.375-.375H.529a.375.375,0,0,0-.375.375V16.156a.375.375,0,0,0,.375.375H2.791a2.183,2.183,0,0,0,4.351,0h6.5a2.183,2.183,0,0,0,4.351,0h1.48a.375.375,0,0,0,.375-.375V10.544A4.461,4.461,0,0,0,15.39,6.088ZM4.967,17.787a1.445,1.445,0,1,1,1.444-1.444A1.445,1.445,0,0,1,4.967,17.787Zm0-3.639a2.192,2.192,0,0,0-2.113,1.633H.9V2.213H11.989V15.781H7.079A2.192,2.192,0,0,0,4.967,14.148Zm10.849,3.639A1.445,1.445,0,1,1,17.2,15.968v.563h.037A1.441,1.441,0,0,1,15.816,17.787Zm3.28-2.006H17.928a2.183,2.183,0,0,0-4.225,0h-.964V6.838H15.39A3.71,3.71,0,0,1,19.1,10.544Z"/>
    </symbol>
    <symbol id="icon-Helmet" viewBox="0 0 47 32">
      <title>helmet</title>
      <path d="M45.089 21.087h-1.593c-0.544-7.81-5.444-15.287-12.051-18.144l-1.197-0.518c-0.012-1.339-1.116-2.425-2.474-2.425h-9.003c-1.365 0-2.474 1.097-2.474 2.446v0.055l-1.002 0.431c-6.616 2.856-11.525 10.337-12.072 18.154h-1.77c-0.804 0-1.455 0.644-1.455 1.439v3.151c-0.002 0.492 0.253 0.948 0.671 1.213 6.353 4.005 15.841 4.846 22.685 4.846 6.817 0 16.256-0.819 22.511-4.722 0.423-0.264 0.679-0.723 0.679-1.218v-3.271c0-0.794-0.652-1.438-1.456-1.438zM43.633 24.982c-5.675 3.192-14.096 3.878-20.278 3.878-5.094 0-14.353-0.53-20.445-3.994v-0.9h1.721c0.803 0 1.455-0.644 1.455-1.439 0-7.049 4.378-14.267 10.211-16.881v12.608c0 0.795 0.65 1.439 1.455 1.439s1.456-0.644 1.456-1.439v-15.375h8.13v15.375c0 0.795 0.652 1.439 1.456 1.439s1.455-0.644 1.455-1.439v-12.688l0.030 0.013c5.904 2.554 10.356 9.839 10.356 16.947 0 0.795 0.652 1.439 1.456 1.439h1.542v1.017z"/>
    </symbol>
    <symbol id="icon-Lamp" viewBox="0 0 27 32">
      <title>lamp</title>
      <path d="M14.437 22.021v7.979h6.224v2h-14.882v-2h6.882v-7.979h-12.661l9.543-22.021h7.613l9.543 22.021h-12.262zM3 19.871h20.873l-7.743-17.871h-5.386l-7.744 17.871z"/>
    </symbol>
    <symbol id="icon-Washbasin" viewBox="0 0 33 32">
      <title>washbasin</title>
      <path d="M33.032 15.557c0-0.455-0.369-0.824-0.824-0.824h-24.424v-10.791c0.169-1.362 1.326-2.384 2.698-2.384s2.529 1.023 2.698 2.384v1.812h1.648v-1.812c-0.218-2.237-2.098-3.942-4.345-3.942s-4.127 1.706-4.345 3.942v10.791h-5.313c-0.455 0-0.824 0.369-0.824 0.824v2.471c0.004 5.137 3.942 9.416 9.061 9.844 0.399 2.259 2.36 3.908 4.654 3.913h5.601c2.294-0.005 4.255-1.653 4.654-3.913 5.119-0.428 9.058-4.706 9.061-9.844v-2.471zM19.317 30.137h-5.601c-1.373 0-2.581-0.906-2.966-2.224h11.532c-0.384 1.318-1.593 2.224-2.965 2.224zM31.385 18.028c0 4.549-3.688 8.237-8.237 8.237h-13.262c-4.549 0-8.237-3.688-8.237-8.237v-1.648h29.737v1.648z"/>
    </symbol>
    <symbol id="icon-Home" viewBox="0 0 32 32">
      <title>home</title>
      <path d="M29.875 17.6h-2.675v9.6c0 0.712-0.31 1.6-1.6 1.6h-6.4v-9.6h-6.4v9.6h-6.4c-1.29 0-1.6-0.888-1.6-1.6v-9.6h-2.675c-0.957 0-0.752-0.518-0.096-1.197l12.838-12.851c0.312-0.323 0.722-0.483 1.133-0.499 0.411 0.016 0.821 0.174 1.133 0.499l12.837 12.85c0.658 0.68 0.862 1.198-0.094 1.198z"/>
    </symbol>
    <symbol id="icon-Clock" viewBox="0 0 20 20">
      <title>clock</title>
      <g>
        <path d="M10,0A10,10,0,1,0,20,10,10.011,10.011,0,0,0,10,0Zm0,19.25A9.25,9.25,0,1,1,19.25,10,9.26,9.26,0,0,1,10,19.25Z"/>
        <polygon points="10.313 3.125 9.563 3.125 9.563 9.875 9.563 10.5 9.563 10.625 14.937 10.625 14.937 9.875 10.313 9.875 10.313 3.125"/>
      </g>
    </symbol>
    <symbol id="icon-Chair" viewBox="0 0 22 32">
      <title>chair</title>
      <path stroke-width="0.3765" stroke-miterlimit="4" stroke-linecap="butt" stroke-linejoin="miter" d="M3.868 14.529v-11.588c0-1.1 0.892-1.999 1.992-1.999h9.922c1.101 0 1.992 0.895 1.992 1.999v11.588c1.187 0.694 1.987 1.992 1.987 3.479v0.502c0 0.227-0.158 0.428-0.373 0.486l1.314 11.568c0.031 0.269-0.168 0.496-0.445 0.496h-1.363c-0.283 0-0.554-0.222-0.618-0.496l-2.707-11.551h-9.495l-2.705 11.551c-0.064 0.274-0.334 0.496-0.618 0.496h-1.363c-0.277 0-0.476-0.227-0.445-0.496l1.314-11.566c-0.215-0.055-0.377-0.252-0.377-0.487v-0.502c0-1.484 0.799-2.784 1.987-3.479zM4.861 14.118c0.316-0.082 0.647-0.126 0.988-0.126h9.944c0.341 0 0.672 0.044 0.988 0.126v-11.167c0-0.56-0.446-1.005-0.996-1.005h-9.928c-0.543 0-0.996 0.45-0.996 1.005v11.167zM16.591 19.012l2.588 11.043h0.467l-1.255-11.043h-1.8zM5.056 19.012h-1.8l-1.255 11.043h0.467l2.588-11.043zM2.875 18.009h15.893c0-1.669-1.338-3.013-2.989-3.013h-9.914c-1.662 0-2.989 1.349-2.989 3.013z"/>
    </symbol>
    <symbol id="icon-Refrigerator" viewBox="0 0 18 32">
      <title>refrigerator</title>
      <path d="M13.179 30.609h-8.356v0.725c0 0.369-0.304 0.667-0.678 0.667s-0.678-0.298-0.678-0.667v-0.725h-0.171c-1.817 0-3.296-1.455-3.296-3.241v-24.125c0.001-1.788 1.48-3.242 3.296-3.242h11.409c1.817 0 3.295 1.455 3.295 3.242v24.125c0 1.787-1.478 3.241-3.295 3.241h-0.171v0.725c0 0.369-0.303 0.667-0.678 0.667s-0.678-0.298-0.678-0.667v-0.725zM16.644 11.351v-8.109c0-1.053-0.87-1.909-1.939-1.909h-11.409c-1.070 0-1.94 0.857-1.941 1.909v8.109h15.289zM16.644 12.684h-15.289v14.683c0 1.052 0.87 1.908 1.941 1.908h11.409c1.070 0 1.939-0.856 1.939-1.908v-14.683zM14.654 9.073c-0.375 0-0.678-0.299-0.678-0.667v-3.639c0-0.368 0.303-0.667 0.678-0.667s0.678 0.299 0.678 0.667v3.639c0 0.368-0.303 0.667-0.678 0.667zM14.654 19.825c-0.375 0-0.678-0.298-0.678-0.667v-3.639c0-0.368 0.303-0.667 0.678-0.667s0.678 0.299 0.678 0.667v3.639c0 0.369-0.303 0.667-0.678 0.667z"/>
    </symbol>
    <symbol id="icon-Cabinet" viewBox="0 0 24 32">
      <title>cabinet</title>
      <path stroke-width="0.3765" stroke-miterlimit="4" stroke-linecap="butt" stroke-linejoin="miter" d="M1.391 29.307h0.45v1.305c0 0.24 0.207 0.446 0.45 0.446h1.729c0.242 0 0.45-0.206 0.45-0.446v-1.305h14.697v1.305c0 0.24 0.207 0.446 0.45 0.446h1.729c0.242 0 0.45-0.206 0.45-0.446v-1.305h0.346c0.242 0 0.45-0.206 0.45-0.446v-27.473c0-0.24-0.207-0.446-0.45-0.446h-20.748c-0.242 0-0.45 0.206-0.45 0.446v27.473c0.035 0.24 0.207 0.446 0.45 0.446zM3.569 30.166h-0.865v-0.859h0.865v0.859zM20.859 30.166h-0.864v-0.859h0.864v0.859zM1.84 1.834h19.883v12.878h-19.883v-12.878zM1.84 15.571h19.883v12.878h-19.883v-12.878zM10.9 19.863h1.729c0.242 0 0.45-0.206 0.45-0.446v-1.717c0-0.24-0.207-0.446-0.45-0.446h-1.729c-0.242 0-0.45 0.206-0.45 0.446v1.717c0.035 0.24 0.207 0.446 0.45 0.446zM11.35 18.146h0.864v0.859h-0.864v-0.859z"/>
    </symbol>
    <symbol id="icon-Handle" viewBox="0 0 24 32">
      <title>handle</title>
      <path d="M7.796 19.732c-1.212 0-2.198 0.986-2.198 2.198 0 0.592 0.243 1.161 0.663 1.572v1.463c0 0.846 0.689 1.535 1.535 1.535s1.534-0.689 1.534-1.535v-1.463c0.419-0.411 0.663-0.98 0.663-1.572 0-1.212-0.986-2.198-2.198-2.198zM8.441 22.799l-0.225 0.167v1.998c0 0.231-0.188 0.419-0.418 0.419h-0c-0.227 0-0.419-0.192-0.419-0.419v-1.998l-0.225-0.167c-0.278-0.207-0.438-0.524-0.438-0.869 0-0.596 0.485-1.081 1.081-1.081s1.081 0.485 1.081 1.081c-0 0.346-0.16 0.662-0.438 0.869zM21.177 8.252h-5.915v-0.624c0-4.116-3.349-7.465-7.465-7.465s-7.465 3.349-7.465 7.465v16.744c0 4.116 3.349 7.465 7.465 7.465s7.465-3.349 7.465-7.465v-11.508h5.915c1.271 0 2.305-1.034 2.305-2.306s-1.034-2.306-2.305-2.306zM14.146 24.372c0 3.501-2.848 6.349-6.349 6.349s-6.349-2.848-6.349-6.349v-16.744c0-3.501 2.848-6.349 6.349-6.349s6.349 2.848 6.349 6.349v0.624h-1.502c-0.865-1.812-2.708-3.071-4.846-3.071-2.965 0-5.376 2.412-5.376 5.376s2.412 5.376 5.376 5.376c2.138 0 3.981-1.258 4.846-3.070h1.502v11.508zM7.796 13.651c0.772 0 1.495-0.278 2.062-0.787h1.513c-0.759 1.174-2.076 1.954-3.575 1.954-2.349 0-4.26-1.911-4.26-4.26s1.911-4.26 4.26-4.26c1.499 0 2.816 0.78 3.575 1.954h-1.513c-0.567-0.509-1.29-0.787-2.062-0.787-1.706 0-3.093 1.388-3.093 3.093s1.388 3.093 3.093 3.093zM21.177 11.748h-11.783l-0.165 0.173c-0.377 0.396-0.886 0.614-1.432 0.614-1.090 0-1.977-0.887-1.977-1.977s0.887-1.977 1.977-1.977c0.547 0 1.055 0.218 1.432 0.614l0.165 0.173h11.784c0.656 0 1.189 0.534 1.189 1.19s-0.533 1.19-1.189 1.19z"/>
    </symbol>
    <symbol id="icon-Service" viewBox="0 0 40 32">
      <title>service</title>
      <path d="M23.836 0.21c-0.123 0-0.246 0.051-0.333 0.138s-0.138 0.21-0.138 0.333v2.006c-0.333 0.102-0.651 0.237-0.951 0.401l-1.422-1.422c-0.087-0.087-0.21-0.138-0.333-0.138s-0.246 0.051-0.333 0.138l-1.44 1.44c-0.087 0.087-0.138 0.21-0.138 0.333s0.051 0.246 0.138 0.333l1.429 1.429c-0.16 0.3-0.289 0.616-0.389 0.944h-2.025c-0.123 0-0.246 0.051-0.333 0.138s-0.138 0.21-0.138 0.333v2.038c0 0.123 0.051 0.246 0.138 0.333s0.21 0.138 0.333 0.138h2.025c0.099 0.328 0.229 0.645 0.389 0.944l-1.429 1.429c-0.087 0.087-0.138 0.21-0.138 0.333s0.051 0.246 0.138 0.333l1.44 1.44c0.087 0.087 0.209 0.138 0.332 0.138s0.245-0.050 0.333-0.137l1.422-1.418c0.3 0.164 0.619 0.299 0.952 0.401v2.001c0 0.123 0.051 0.246 0.138 0.333s0.21 0.138 0.333 0.138h2.038c0.123-0 0.246-0.051 0.333-0.138s0.138-0.21 0.138-0.333v-1.987c0.341-0.1 0.666-0.232 0.972-0.395l1.401 1.397c0.087 0.087 0.209 0.137 0.333 0.137s0.245-0.051 0.332-0.138l1.44-1.44c0.087-0.087 0.138-0.21 0.138-0.333s-0.051-0.246-0.138-0.333l-1.389-1.389c0.168-0.311 0.305-0.64 0.408-0.984h1.966c0.123 0 0.246-0.051 0.333-0.138s0.138-0.21 0.138-0.333v-2.038c0-0.123-0.051-0.246-0.138-0.333s-0.21-0.138-0.333-0.138h-1.966c-0.103-0.343-0.239-0.671-0.407-0.98l1.389-1.393c0.087-0.087 0.137-0.21 0.137-0.333s-0.051-0.245-0.138-0.332l-1.44-1.44c-0.087-0.087-0.21-0.138-0.333-0.138s-0.246 0.051-0.333 0.138l-1.4 1.4c-0.307-0.164-0.633-0.298-0.973-0.398v-1.987c0-0.123-0.051-0.246-0.138-0.333s-0.21-0.138-0.333-0.138h-2.038zM24.307 1.151h1.096v1.882c0 0.107 0.038 0.213 0.105 0.296s0.163 0.142 0.267 0.164c0.496 0.106 0.956 0.296 1.365 0.558 0.089 0.057 0.199 0.083 0.304 0.071s0.207-0.060 0.282-0.135l1.324-1.324 0.775 0.775-1.315 1.319c-0.075 0.076-0.124 0.177-0.135 0.283s0.015 0.216 0.073 0.305c0.265 0.408 0.46 0.874 0.571 1.37 0.023 0.104 0.082 0.199 0.165 0.265s0.188 0.104 0.294 0.104h1.859v1.096h-1.859c-0.106 0-0.212 0.037-0.294 0.104s-0.142 0.161-0.165 0.265c-0.11 0.497-0.306 0.963-0.572 1.377-0.058 0.089-0.083 0.199-0.072 0.305s0.060 0.207 0.135 0.282l1.314 1.314-0.775 0.775-1.324-1.32c-0.075-0.075-0.175-0.123-0.28-0.134s-0.213 0.013-0.303 0.069c-0.41 0.258-0.872 0.449-1.368 0.555-0.104 0.022-0.2 0.081-0.267 0.164s-0.105 0.189-0.105 0.296v1.882h-1.096v-1.892c0-0.106-0.037-0.211-0.103-0.294s-0.161-0.142-0.264-0.165c-0.486-0.11-0.938-0.304-1.345-0.567-0.089-0.058-0.199-0.084-0.305-0.073s-0.207 0.060-0.283 0.135l-1.347 1.344-0.775-0.775 1.352-1.352c0.075-0.075 0.123-0.176 0.135-0.281s-0.014-0.214-0.071-0.304c-0.257-0.405-0.444-0.857-0.555-1.344-0.023-0.103-0.083-0.197-0.165-0.263s-0.188-0.103-0.293-0.103h-1.915v-1.096h1.915c0.106-0 0.211-0.037 0.293-0.103s0.142-0.16 0.165-0.263c0.111-0.487 0.298-0.939 0.555-1.344 0.057-0.089 0.082-0.199 0.071-0.304s-0.060-0.206-0.135-0.281l-1.352-1.352 0.775-0.774 1.347 1.347c0.075 0.075 0.177 0.124 0.283 0.135s0.216-0.015 0.305-0.073c0.407-0.263 0.859-0.457 1.345-0.567 0.103-0.023 0.198-0.083 0.264-0.165s0.103-0.188 0.103-0.294v-1.896zM24.857 5.424c-1.215 0-2.212 0.996-2.212 2.212s0.998 2.207 2.212 2.207c1.214 0 2.207-0.993 2.207-2.207s-0.992-2.212-2.207-2.212zM24.857 6.365c0.705 0 1.266 0.564 1.266 1.271s-0.56 1.266-1.266 1.266c-0.706 0-1.271-0.561-1.271-1.266s0.566-1.271 1.271-1.271zM38.371 13.329c-0.383-0.008-0.772 0.088-1.123 0.307-0 0-0.001 0-0.001 0l-7.232 4.531c-0.001-0.005-0.001-0.006-0.002-0.009 0-0 0-0 0-0-0.354-1.318-1.54-2.235-2.741-1.939-0 0-0 0-0.001 0l-7.159 1.777-5.505-3.004c-0.105-0.057-0.232-0.072-0.347-0.041l-7.853 2.105-0.389-1.452c-0.032-0.119-0.113-0.224-0.219-0.286s-0.238-0.079-0.357-0.047l-5.092 1.36c-0.119 0.032-0.224 0.113-0.286 0.219s-0.079 0.238-0.047 0.357l3.816 14.235c0.032 0.119 0.113 0.224 0.219 0.286s0.238 0.079 0.357 0.047l4.955-1.327c0.117-0.032 0.221-0.11 0.283-0.215s0.081-0.234 0.052-0.352l-0.56-2.277c2.133-0.256 3.422-0.010 7.824 0.443 0 0 0 0 0.001 0 3.587 0.374 4.982 0.821 8.781-0.197 0-0 0-0 0-0 3.974-1.062 6.862-4.485 8.535-6.010h0.002l5.207-4.525c0.405-0.351 0.729-0.79 0.885-1.295s0.127-1.085-0.169-1.6c-0-0.001-0.001-0.002-0.001-0.003-0.39-0.67-1.102-1.069-1.834-1.086l-0-0.002zM38.304 14.271c0.424-0.008 0.853 0.218 1.086 0.615 0 0.001 0.001 0.002 0.002 0.003 0.164 0.288 0.176 0.556 0.085 0.851s-0.307 0.607-0.603 0.863c0 0-0 0-0 0l-5.209 4.527c-0.003 0-0.005 0.005-0.008 0.007-1.782 1.622-4.557 4.843-8.153 5.804 0 0-0 0-0 0-3.682 0.987-4.8 0.549-8.441 0.17 0 0-0 0-0 0-4.461-0.46-5.841-0.719-8.147-0.428l-0.804-3.268c-0.028-0.121-0.107-0.229-0.213-0.293s-0.238-0.085-0.358-0.055c-0.12 0.030-0.228 0.109-0.291 0.215-0.032 0.053-0.053 0.113-0.062 0.174s-0.006 0.124 0.010 0.184l1.48 6.018-4.055 1.086-3.573-13.326 4.182-1.117 1.059 3.951c0.030 0.121 0.11 0.228 0.218 0.292 0.054 0.032 0.114 0.052 0.175 0.061s0.125 0.005 0.185-0.012c0.12-0.032 0.226-0.115 0.288-0.223 0.031-0.054 0.050-0.115 0.058-0.177s0.002-0.125-0.015-0.185l-0.548-2.044 7.671-2.056 5.501 3.002c0.102 0.056 0.226 0.072 0.339 0.044l7.336-1.821c0.596-0.146 1.358 0.349 1.606 1.27 0.248 0.927-0.163 1.747-0.745 1.903v-0l-8.508 2.282c-0.12 0.031-0.226 0.112-0.288 0.219s-0.080 0.239-0.048 0.359 0.113 0.225 0.221 0.287c0.107 0.061 0.24 0.078 0.359 0.045l8.508-2.282c0.881-0.236 1.416-1.054 1.502-1.992l7.642-4.788c0.172-0.107 0.364-0.159 0.557-0.163l-0-0z"/>
    </symbol>
    <symbol id="icon-Securemoney" viewBox="0 0 20 20">
      <title>securemoney</title>
      <g>
        <path d="M10.059,10.3a1.785,1.785,0,0,1,1.283.463.869.869,0,0,1,.273.623l.75.012a1.614,1.614,0,0,0-.491-1.164,2.4,2.4,0,0,0-1.5-.664V8.717h-.75v.872a2.1,2.1,0,0,0-1.931,1.835,1.673,1.673,0,0,0,.7,1.351,2.285,2.285,0,0,0,.386.235l.026.012.01,0,.079.035,1.538.678a.362.362,0,0,0,.078.042l.171.067a.354.354,0,0,0,.109.026,1.568,1.568,0,0,1,.353.2.919.919,0,0,1,.408.74c-.01.607-.749,1.128-1.615,1.137a1.751,1.751,0,0,1-1.283-.463.871.871,0,0,1-.273-.623l-.75-.012a1.612,1.612,0,0,0,.491,1.163,2.439,2.439,0,0,0,1.5.659v.819h.75v-.832a2.1,2.1,0,0,0,1.931-1.835,1.673,1.673,0,0,0-.7-1.351,2.414,2.414,0,0,0-.775-.384L9.36,12.446a.282.282,0,0,0-.064-.034l-.178-.074a1.506,1.506,0,0,1-.266-.161.919.919,0,0,1-.408-.74C8.454,10.83,9.193,10.309,10.059,10.3Z"/>
        <path d="M16.966,6.76H15.78c0-.012.007-.022.007-.035V5.949a5.787,5.787,0,0,0-11.574,0v.776c0,.013.006.023.007.035H3.034A1.943,1.943,0,0,0,1.094,8.7v9.2a1.942,1.942,0,0,0,1.94,1.94H16.966a1.942,1.942,0,0,0,1.94-1.94V8.7A1.943,1.943,0,0,0,16.966,6.76Zm-12-.035V5.949a5.037,5.037,0,0,1,10.074,0v.776c0,.013.006.023.007.035H4.956C4.957,6.748,4.963,6.738,4.963,6.725ZM18.156,17.9a1.192,1.192,0,0,1-1.19,1.19H3.034a1.192,1.192,0,0,1-1.19-1.19V8.7A1.192,1.192,0,0,1,3.034,7.51H16.966A1.192,1.192,0,0,1,18.156,8.7Z"/>
      </g>
    </symbol>
    <symbol id="icon-Terms" viewBox="0 0 27 32">
      <title>Terms</title>
      <path d="M3.938 12.569h12.857c0.315 0 0.571-0.256 0.571-0.571s-0.256-0.571-0.571-0.571h-12.857c-0.316 0-0.571 0.256-0.571 0.571s0.256 0.571 0.571 0.571zM3.938 9.353h12.857c0.315 0 0.571-0.256 0.571-0.571s-0.256-0.571-0.571-0.571h-12.857c-0.316 0-0.571 0.256-0.571 0.571s0.256 0.571 0.571 0.571zM3.938 15.452h10.571c0.315 0 0.571-0.256 0.571-0.571s-0.256-0.571-0.571-0.571h-10.571c-0.316 0-0.571 0.256-0.571 0.571s0.256 0.571 0.571 0.571zM10.7 17.192h-6.762c-0.316 0-0.571 0.256-0.571 0.571s0.256 0.571 0.571 0.571h6.762c0.316 0 0.571-0.256 0.571-0.571s-0.256-0.571-0.571-0.571zM8.813 20.074h-4.875c-0.316 0-0.571 0.256-0.571 0.571s0.256 0.571 0.571 0.571h4.875c0.316 0 0.571-0.256 0.571-0.571s-0.256-0.571-0.571-0.571zM21.592 20.827l-3.958 4.665-2.529-2.012c-0.246-0.197-0.606-0.156-0.803 0.091s-0.155 0.606 0.091 0.803l2.962 2.357c0.105 0.084 0.23 0.124 0.356 0.124 0.162 0 0.323-0.069 0.436-0.202l4.316-5.087c0.204-0.241 0.175-0.601-0.066-0.805s-0.601-0.175-0.805 0.066zM20.431 16.039v-9.771c0-0.151-0.059-0.295-0.166-0.403l-5.365-5.413c-0.107-0.108-0.253-0.169-0.405-0.169h-13.62c-0.316 0-0.571 0.256-0.571 0.571v26.193c0 0.315 0.256 0.571 0.571 0.571h10.551c1.365 2.44 3.973 4.096 6.963 4.096 4.398 0 7.976-3.578 7.976-7.976 0-3.691-2.523-6.795-5.933-7.701zM15.066 2.244l3.422 3.453h-3.422v-3.453zM10.906 26.477h-9.461v-25.050h12.477v4.842c0 0.315 0.256 0.571 0.571 0.571h4.794v8.979c-0.296-0.034-0.595-0.054-0.899-0.054-4.398 0-7.976 3.578-7.976 7.976 0 0.963 0.18 1.882 0.494 2.737zM18.389 30.573c-3.768 0-6.834-3.065-6.834-6.833s3.066-6.834 6.834-6.834c3.768 0 6.833 3.066 6.833 6.834s-3.065 6.833-6.833 6.833z"/>
    </symbol>
    <symbol id="icon-Salecondition" viewBox="0 0 24 32">
      <title>Salecondition</title>
      <path d="M22.957 8.348h-3.478v-1.391c0-3.896-3.2-6.957-7.304-6.957s-7.304 3.061-7.304 6.957v1.391h-3.478c-0.765 0-1.391 0.626-1.391 1.391v20.87c0 0.765 0.626 1.391 1.391 1.391h21.565c0.765 0 1.391-0.626 1.391-1.391v-20.87c0-0.765-0.626-1.391-1.391-1.391zM6.261 6.957c0-3.13 2.609-5.565 5.913-5.565s5.913 2.435 5.913 5.565v1.391h-11.826v-1.391zM22.957 30.609h-21.565v-20.87h21.565v20.87zM8 18.783c-1.53 0-2.783-1.252-2.783-2.783s1.252-2.783 2.783-2.783c1.53 0 2.783 1.252 2.783 2.783s-1.252 2.783-2.783 2.783zM8 14.609c-0.765 0-1.391 0.626-1.391 1.391s0.626 1.391 1.391 1.391c0.765 0 1.391-0.626 1.391-1.391s-0.626-1.391-1.391-1.391zM16.348 27.13c-1.53 0-2.783-1.252-2.783-2.783s1.252-2.783 2.783-2.783c1.53 0 2.783 1.252 2.783 2.783s-1.252 2.783-2.783 2.783zM16.348 22.957c-0.765 0-1.391 0.626-1.391 1.391s0.626 1.391 1.391 1.391c0.765 0 1.391-0.626 1.391-1.391s-0.626-1.391-1.391-1.391zM6.261 26.783c-0.174 0-0.348-0.070-0.487-0.209-0.278-0.278-0.278-0.696 0-0.974l11.826-11.826c0.278-0.278 0.696-0.278 0.974 0s0.278 0.696 0 0.974l-11.826 11.826c-0.139 0.139-0.313 0.209-0.487 0.209z"/>
    </symbol>
    <symbol id="icon-Privacy" viewBox="0 0 43 32">
      <title>Privacy</title>
      <path d="M9.231 0.051c-0.366 0.040-0.678 0.28-0.811 0.622s-0.063 0.73 0.18 1.005l3.831 4.59c-6.418 2.558-10.472 7.149-12.139 8.812-0.187 0.185-0.292 0.436-0.292 0.698s0.105 0.514 0.292 0.698c2.36 2.355 9.497 10.608 21.369 10.608 2.66 0 5.078-0.405 7.262-1.075l4.292 5.143c0.218 0.294 0.58 0.443 0.942 0.387s0.663-0.307 0.781-0.652c0.119-0.345 0.036-0.728-0.216-0.994l-3.831-4.59c6.417-2.562 10.472-7.165 12.139-8.828 0.187-0.185 0.292-0.436 0.292-0.698s-0.105-0.514-0.292-0.698c-2.36-2.355-9.497-10.593-21.369-10.593-2.654 0-5.066 0.424-7.246 1.090l-4.308-5.158c-0.21-0.265-0.541-0.404-0.877-0.368zM21.662 6.453c10.254 0 16.421 6.394 19.292 9.334-2.038 2.087-5.741 5.906-11.369 7.952l-2.492-2.978c1.211-1.315 1.954-3.058 1.954-4.974 0-4.058-3.318-7.369-7.385-7.369-1.44 0-2.784 0.418-3.923 1.136l-1.969-2.349c1.791-0.468 3.752-0.752 5.892-0.752zM13.739 7.835l2.492 2.978c-1.211 1.315-1.954 3.058-1.954 4.974 0 4.058 3.318 7.369 7.385 7.369 1.44 0 2.784-0.418 3.923-1.136l1.969 2.349c-1.791 0.468-3.753 0.752-5.892 0.752-10.246 0-16.417-6.391-19.292-9.334 2.037-2.085 5.734-5.906 11.369-7.952zM21.662 10.383c3.003 0 5.415 2.408 5.415 5.404 0 1.319-0.468 2.52-1.246 3.454l-6.815-8.167c0.781-0.434 1.683-0.691 2.646-0.691zM17.492 12.333l6.815 8.167c-0.781 0.434-1.683 0.691-2.646 0.691-3.003 0-5.415-2.408-5.415-5.404 0-1.319 0.468-2.52 1.246-3.454z"/>
    </symbol>
    <symbol id="icon-Legalnotes" viewBox="0 0 27 32">
      <title>Legalnotes</title>
      <path d="M3.893 12.525h12.857c0.315 0 0.571-0.256 0.571-0.571s-0.256-0.571-0.571-0.571h-12.857c-0.316 0-0.571 0.256-0.571 0.571s0.256 0.571 0.571 0.571zM3.893 9.309h12.857c0.315 0 0.571-0.256 0.571-0.571s-0.256-0.571-0.571-0.571h-12.857c-0.316 0-0.571 0.256-0.571 0.571s0.256 0.571 0.571 0.571zM3.893 15.408h10.571c0.315 0 0.571-0.256 0.571-0.571s-0.256-0.571-0.571-0.571h-10.571c-0.316 0-0.571 0.256-0.571 0.571s0.256 0.571 0.571 0.571zM10.655 17.147h-6.762c-0.316 0-0.571 0.256-0.571 0.571s0.256 0.571 0.571 0.571h6.762c0.316 0 0.571-0.256 0.571-0.571s-0.256-0.571-0.571-0.571zM8.768 20.030h-4.875c-0.316 0-0.571 0.256-0.571 0.571s0.256 0.571 0.571 0.571h4.875c0.316 0 0.571-0.256 0.571-0.571s-0.256-0.571-0.571-0.571zM22.465 20.338l-3.867-1.171c-0.108-0.033-0.223-0.033-0.331 0l-3.866 1.171c-0.241 0.073-0.406 0.295-0.406 0.547 0 2.305 0.062 4.331 0.815 5.792 0.763 1.482 1.996 1.941 3.085 2.347 0.112 0.042 0.223 0.083 0.333 0.125 0.066 0.026 0.136 0.038 0.205 0.038s0.139-0.013 0.205-0.038c0.109-0.042 0.22-0.083 0.331-0.125 1.089-0.406 2.325-0.866 3.087-2.347 0.754-1.462 0.815-3.488 0.815-5.793-0.001-0.252-0.165-0.474-0.406-0.547zM21.040 26.154c-0.56 1.088-1.487 1.434-2.469 1.8-0.046 0.017-0.091 0.034-0.138 0.051-0.046-0.017-0.092-0.035-0.138-0.052-0.981-0.366-1.908-0.711-2.468-1.8-0.546-1.058-0.674-2.538-0.687-4.845l3.293-0.997 3.294 0.997c-0.013 2.307-0.142 3.787-0.688 4.846zM20.386 16.059v-9.835c0-0.151-0.059-0.295-0.166-0.402l-5.365-5.413c-0.107-0.108-0.253-0.169-0.405-0.169h-13.62c-0.316 0-0.571 0.256-0.571 0.571v26.193c0 0.315 0.256 0.571 0.571 0.571h10.588c1.351 2.49 3.989 4.184 7.016 4.184 4.398 0 7.976-3.578 7.976-7.976-0-3.723-2.568-6.85-6.022-7.724zM15.021 2.199l3.422 3.453h-3.422v-3.453zM10.919 26.433h-9.518v-25.050h12.477v4.841c0 0.316 0.256 0.571 0.571 0.571h4.794v9.053c-0.266-0.027-0.536-0.041-0.81-0.041-4.398 0-7.976 3.578-7.976 7.976 0 0.929 0.168 1.818 0.462 2.648zM18.433 30.617c-3.768 0-6.833-3.066-6.833-6.834s3.065-6.834 6.833-6.834c3.768 0 6.833 3.066 6.833 6.834s-3.065 6.834-6.833 6.834z"/>
    </symbol>
    <symbol id="icon-Cookies" viewBox="0 0 35 32">
      <title>Cookies</title>
      <path d="M16 20.87c0.384 0 0.696-0.311 0.696-0.696s-0.311-0.696-0.696-0.696h-5.565c-0.384 0-0.696 0.311-0.696 0.696s0.311 0.696 0.696 0.696h5.565zM16 16.696c0.384 0 0.696-0.311 0.696-0.696s-0.311-0.696-0.696-0.696h-5.565c-0.384 0-0.696 0.311-0.696 0.696s0.311 0.696 0.696 0.696h5.565zM0 0.696v30.609c0 0.384 0.311 0.696 0.696 0.696h33.391c0.384 0 0.696-0.311 0.696-0.696v-30.609c0-0.384-0.311-0.696-0.696-0.696h-33.391c-0.384 0-0.696 0.311-0.696 0.696zM1.391 1.391h32v4.174h-32v-4.174zM1.391 6.957h32v23.652h-32v-23.652zM3.478 4.174c0.384 0 0.696-0.311 0.696-0.696s-0.311-0.696-0.696-0.696c-0.384 0-0.696 0.311-0.696 0.696s0.311 0.696 0.696 0.696zM6.261 4.174c0.384 0 0.696-0.311 0.696-0.696s-0.311-0.696-0.696-0.696c-0.384 0-0.696 0.311-0.696 0.696s0.311 0.696 0.696 0.696zM9.043 4.174c-0.384 0-0.696-0.311-0.696-0.696s0.311-0.696 0.696-0.696c0.384 0 0.696 0.311 0.696 0.696s-0.311 0.696-0.696 0.696zM20.546 17.943l-1.968-1.968c-0.272-0.272-0.272-0.712 0-0.984s0.712-0.272 0.984 0l1.476 1.476 2.459-2.46c0.272-0.272 0.712-0.272 0.984 0s0.272 0.712 0 0.984l-2.951 2.951c-0.272 0.272-0.712 0.272-0.984 0zM20.546 22.116l-1.968-1.968c-0.272-0.272-0.272-0.712 0-0.984s0.712-0.272 0.984 0l1.476 1.476 2.459-2.459c0.272-0.272 0.712-0.272 0.984 0s0.272 0.712 0 0.984l-2.951 2.951c-0.272 0.272-0.712 0.272-0.984 0z"/>
    </symbol>
    <symbol id="icon-facebook" viewBox="0 0 19 32">
      <title>facebook</title>
      <path d="M17.125 0.214v4.714h-2.804c-2.196 0-2.607 1.054-2.607 2.571v3.375h5.232l-0.696 5.286h-4.536v13.554h-5.464v-13.554h-4.554v-5.286h4.554v-3.893c0-4.518 2.768-6.982 6.804-6.982 1.929 0 3.589 0.143 4.071 0.214z"/>
    </symbol>
    <symbol id="icon-instagram" viewBox="0 0 27 32">
      <title>instagram</title>
      <path d="M18.286 16c0-2.518-2.054-4.571-4.571-4.571s-4.571 2.054-4.571 4.571 2.054 4.571 4.571 4.571 4.571-2.054 4.571-4.571zM20.75 16c0 3.893-3.143 7.036-7.036 7.036s-7.036-3.143-7.036-7.036 3.143-7.036 7.036-7.036 7.036 3.143 7.036 7.036zM22.679 8.679c0 0.911-0.732 1.643-1.643 1.643s-1.643-0.732-1.643-1.643 0.732-1.643 1.643-1.643 1.643 0.732 1.643 1.643zM13.714 4.75c-2 0-6.286-0.161-8.089 0.554-0.625 0.25-1.089 0.554-1.571 1.036s-0.786 0.946-1.036 1.571c-0.714 1.804-0.554 6.089-0.554 8.089s-0.161 6.286 0.554 8.089c0.25 0.625 0.554 1.089 1.036 1.571s0.946 0.786 1.571 1.036c1.804 0.714 6.089 0.554 8.089 0.554s6.286 0.161 8.089-0.554c0.625-0.25 1.089-0.554 1.571-1.036s0.786-0.946 1.036-1.571c0.714-1.804 0.554-6.089 0.554-8.089s0.161-6.286-0.554-8.089c-0.25-0.625-0.554-1.089-1.036-1.571s-0.946-0.786-1.571-1.036c-1.804-0.714-6.089-0.554-8.089-0.554zM27.429 16c0 1.893 0.018 3.768-0.089 5.661-0.107 2.196-0.607 4.143-2.214 5.75s-3.554 2.107-5.75 2.214c-1.893 0.107-3.768 0.089-5.661 0.089s-3.768 0.018-5.661-0.089c-2.196-0.107-4.143-0.607-5.75-2.214s-2.107-3.554-2.214-5.75c-0.107-1.893-0.089-3.768-0.089-5.661s-0.018-3.768 0.089-5.661c0.107-2.196 0.607-4.143 2.214-5.75s3.554-2.107 5.75-2.214c1.893-0.107 3.768-0.089 5.661-0.089s3.768-0.018 5.661 0.089c2.196 0.107 4.143 0.607 5.75 2.214s2.107 3.554 2.214 5.75c0.107 1.893 0.089 3.768 0.089 5.661z"/>
    </symbol>
    <symbol id="icon-Pinterest" viewBox="0 0 23 32">
      <title>pinterest</title>
      <path d="M0 10.661c0-6.589 6.036-10.661 12.143-10.661 5.607 0 10.714 3.857 10.714 9.768 0 5.554-2.839 11.714-9.161 11.714-1.5 0-3.393-0.75-4.125-2.143-1.357 5.375-1.25 6.179-4.25 10.286l-0.25 0.089-0.161-0.179c-0.107-1.125-0.268-2.232-0.268-3.357 0-3.643 1.679-8.911 2.5-12.446-0.446-0.911-0.571-2.018-0.571-3.018 0-1.804 1.25-4.089 3.286-4.089 1.5 0 2.304 1.143 2.304 2.554 0 2.321-1.571 4.5-1.571 6.75 0 1.536 1.268 2.607 2.75 2.607 4.107 0 5.375-5.929 5.375-9.089 0-4.232-3-6.536-7.054-6.536-4.714 0-8.357 3.393-8.357 8.179 0 2.304 1.411 3.482 1.411 4.036 0 0.464-0.339 2.107-0.929 2.107-0.089 0-0.214-0.036-0.304-0.054-2.554-0.768-3.482-4.179-3.482-6.518z"/>
    </symbol>
    <symbol id="icon-Filter" viewBox="0 0 41 32">
      <title>filter</title>
      <path d="M2.286 10.286h18.438c0.838 3.276 3.886 5.79 7.39 5.79s6.552-2.438 7.39-5.79h3.352c1.067 0 1.905-0.838 1.905-1.905s-0.838-1.905-1.905-1.905h-3.352c-0.838-3.276-3.886-5.79-7.39-5.79s-6.552 2.438-7.39 5.79h-18.438c-1.067 0-1.905 0.838-1.905 1.905s0.838 1.905 1.905 1.905zM28.114 3.81c2.514 0 4.571 2.057 4.571 4.571s-2.057 4.571-4.571 4.571c-2.514 0-4.571-2.057-4.571-4.571s2.057-4.571 4.571-4.571zM2.286 25.524h3.2c0.838 3.276 3.886 5.79 7.39 5.79s6.552-2.438 7.39-5.79h18.59c1.067 0 1.905-0.838 1.905-1.905s-0.838-1.905-1.905-1.905h-18.59c-0.838-3.276-3.886-5.79-7.39-5.79s-6.552 2.438-7.39 5.79h-3.2c-1.067 0-1.905 0.838-1.905 1.905s0.838 1.905 1.905 1.905zM12.876 19.048c2.514 0 4.571 2.057 4.571 4.571s-2.057 4.571-4.571 4.571c-2.514 0-4.571-2.057-4.571-4.571s2.057-4.571 4.571-4.571z"/>
    </symbol>
    <symbol id="icon-file-empty" viewBox="0 0 32 32">
      <path d="M28.681 7.159c-0.694-0.947-1.662-2.053-2.724-3.116s-2.169-2.030-3.116-2.724c-1.612-1.182-2.393-1.319-2.841-1.319h-15.5c-1.378 0-2.5 1.121-2.5 2.5v27c0 1.378 1.122 2.5 2.5 2.5h23c1.378 0 2.5-1.122 2.5-2.5v-19.5c0-0.448-0.137-1.23-1.319-2.841zM24.543 5.457c0.959 0.959 1.712 1.825 2.268 2.543h-4.811v-4.811c0.718 0.556 1.584 1.309 2.543 2.268zM28 29.5c0 0.271-0.229 0.5-0.5 0.5h-23c-0.271 0-0.5-0.229-0.5-0.5v-27c0-0.271 0.229-0.5 0.5-0.5 0 0 15.499-0 15.5 0v7c0 0.552 0.448 1 1 1h7v19.5z"/>
    </symbol>
    <symbol id="icon-Order" viewBox="0 0 22 32">
      <title>Order</title>
      <path d="M15.638 28.651l6.339-6.4v2.011l-7.043 7.111-7.043-7.111v-2.011l6.339 6.4v-14.994h1.409v14.994zM6.407 3.349l-6.339 6.4v-2.011l7.043-7.111 7.043 7.111v2.011l-6.339-6.4v14.994h-1.409v-14.994z"/>
    </symbol>
    <symbol id="icon-Play" viewBox="0 0 32 32">
      <title>Play</title>
      <path d="M16 1.2c8.174 0 14.8 6.626 14.8 14.8s-6.626 14.8-14.8 14.8c-8.174 0-14.8-6.626-14.8-14.8v0c0-8.174 6.626-14.8 14.8-14.8v0zM16 0c-8.837 0-16 7.163-16 16s7.163 16 16 16c8.837 0 16-7.163 16-16v0c0-8.837-7.163-16-16-16v0z"/>
      <path d="M13.868 21.080l7.6-4.4c0.24-0.141 0.399-0.398 0.399-0.692s-0.159-0.551-0.395-0.69l-0.004-0.002-7.6-4.4c-0.115-0.067-0.253-0.107-0.4-0.107-0.442 0-0.8 0.358-0.8 0.799v8.812c0 0.441 0.358 0.799 0.8 0.799 0.147 0 0.285-0.040 0.404-0.109l-0.004 0.002z"/>
    </symbol>
    <symbol id="icon-share" viewBox="0 0 20 20">
      <title>share</title>
      <path d="M1.521,16.821a.5.5,0,0,0,.5-.5A9.532,9.532,0,0,1,4.911,9.44,9.033,9.033,0,0,1,11.48,6.832h5.478l-5.837,5.224a.5.5,0,0,0,.666.746L18.61,6.7a.5.5,0,0,0,.167-.379.505.505,0,0,0-.175-.375L11.757.119a.5.5,0,0,0-.649.762l5.821,4.951H11.493a10.062,10.062,0,0,0-7.28,2.893,10.519,10.519,0,0,0-3.192,7.6A.5.5,0,0,0,1.521,16.821Z"/>
      <path d="M19.5,12.917a.5.5,0,0,0-.5.5V19H.5a.5.5,0,0,0,0,1h19a.5.5,0,0,0,.5-.5V13.417A.5.5,0,0,0,19.5,12.917Z"/>
    </symbol>
    <symbol id="icon-Pen" viewBox="0 0 20 20">
      <title>pen</title>
      <path d="M19.4,2L18,0.6c-0.8-0.8-2.1-0.8-2.9,0L1.2,14.4c-0.1,0.1-0.1,0.1-0.2,0.3l-1,4.6c-0.1,0.2,0,0.5,0.2,0.5 C0.3,19.9,0.4,20,0.6,20h0.1l4.5-1.1c0.2,0,0.3-0.1,0.3-0.2L19.4,4.9C19.8,4.5,20,4,20,3.5C20,2.9,19.8,2.4,19.4,2z M1.3,18.7 L2,15.6L4.4,18L1.3,18.7z M18.9,3.4c0,0.2-0.1,0.5-0.3,0.6L5.4,17.3l-2.7-2.7L15.9,1.4c0.4-0.4,0.9-0.4,1.3,0l1.4,1.4 C18.8,3,18.9,3.2,18.9,3.4z"/>
    </symbol>
    <!--icon loader-->
    <symbol id="icon-Loader" viewBox="0 0 20 20">
      <title>Loader</title>
      <circle cx="33" cy="33" r="25"/>
    </symbol>
    <!--icon social-->
    <symbol id="icon-Facebook" viewBox="0 0 20 20">
      <title>Facebook</title>
      <path d="M11.488,6V4.4a.847.847,0,0,1,.884-.961h2.244V.013L11.526,0A3.9,3.9,0,0,0,7.317,4.192V6H5.333v4h2V20h4V10H14.3l.144-1.571L14.667,6Z"/>
    </symbol>
    <symbol id="icon-twitter" viewBox="0 0 20 20">
      <title>Twitter</title>
      <path d="M20,3.9a8.3,8.3,0,0,1-2.356.635A4.066,4.066,0,0,0,19.449,2.3a8.272,8.272,0,0,1-2.607.981A4.124,4.124,0,0,0,13.848,2a4.045,4.045,0,0,0-4,4.96A11.71,11.71,0,0,1,1.394,2.74,3.981,3.981,0,0,0,.838,4.77,4.026,4.026,0,0,0,2.664,8.132a4.147,4.147,0,0,1-1.859-.5v.05a3.961,3.961,0,0,0,.281,1.464,4.1,4.1,0,0,0,3.011,2.5,4.234,4.234,0,0,1-1.082.142,4.1,4.1,0,0,1-.772-.074,4.1,4.1,0,0,0,3.833,2.805,8.313,8.313,0,0,1-5.1,1.73A8.568,8.568,0,0,1,0,16.185,11.758,11.758,0,0,0,6.29,18a11.422,11.422,0,0,0,11.4-9.054,11.1,11.1,0,0,0,.279-2.438c0-.174,0-.35-.011-.523A8.243,8.243,0,0,0,20,3.9Z"/>
    </symbol>
    <symbol id="icon-pinterest" viewBox="0 0 20 20">
      <title>Pinterest</title>
      <path d="M10.483,0C4.845,0,2,3.913,2,7.176A6.513,6.513,0,0,0,2.221,8.9,3.785,3.785,0,0,0,4.43,11.566a.411.411,0,0,0,.6-.289c.055-.2.185-.709.243-.923a.546.546,0,0,0-.17-.639,3.017,3.017,0,0,1-.645-1.187,3.849,3.849,0,0,1-.141-1.066,5.538,5.538,0,0,1,5.846-5.5c3.187,0,4.94,1.886,4.94,4.4a10.043,10.043,0,0,1-.22,2.121c-.5,2.3-1.8,3.988-3.542,3.988A1.8,1.8,0,0,1,9.46,10.258c.17-.694.416-1.413.627-2.09a7.356,7.356,0,0,0,.422-1.987,1.558,1.558,0,0,0-1.6-1.724c-1.27,0-2.291,1.27-2.291,2.972a4.628,4.628,0,0,0,.081.859,3.833,3.833,0,0,0,.3.961S5.7,14.574,5.47,15.508a12.487,12.487,0,0,0-.036,4.365.16.16,0,0,0,.283.067A12.181,12.181,0,0,0,7.86,16.181c.146-.513.835-3.158.835-3.158a3.433,3.433,0,0,0,2.9,1.431c3.108,0,5.4-2.234,6.146-5.5A10.668,10.668,0,0,0,18,6.581C18,3.173,15.017,0,10.483,0Z"/>
    </symbol>
    <symbol id="icon-google" viewBox="0 0 20 20">
      <title>Google Plus</title>
      <path d="M18.227,8.872h-.419V8.5c0-.532.008-1.064,0-1.6,0-.086-.091-.244-.145-.245-.486-.019-.972-.012-1.486-.012v2.22H13.944c0,.167,0,.28,0,.391.017.4.036.805.054,1.207.393.014.785.032,1.179.04.328.006.656,0,1.02,0V12.7H17.8V10.5H20V8.872Z"/>
      <path d="M11.92,8.686c-1.388.018-2.775.008-4.163.008-.4,0-.793-.007-1.189.008-.076,0-.211.093-.211.145-.014.8-.01,1.6-.01,2.442h3.4c-.045.165-.073.284-.112.4A3.288,3.288,0,0,1,5.805,13.72a3.746,3.746,0,0,1-3.07-4.448,3.612,3.612,0,0,1,.27-.855A3.742,3.742,0,0,1,7.165,6.31a3.565,3.565,0,0,1,1.6.828L10.62,5.264c-.042-.033-.1-.075-.156-.121A6.114,6.114,0,0,0,5.311,3.727,6.354,6.354,0,0,0,.1,8.918a6.271,6.271,0,0,0,.334,3.368,6.4,6.4,0,0,0,6.695,4.043A5.717,5.717,0,0,0,10.809,14.6a6.535,6.535,0,0,0,1.607-5.508C12.377,8.747,12.237,8.682,11.92,8.686Z"/>
    </symbol>
    <symbol id="icon-tumblr" viewBox="0 0 20 20">
      <title>Tumblr</title>
      <path d="M6.042,15.215a5.914,5.914,0,0,0,.287,2.091,3.584,3.584,0,0,0,1.032,1.362,5.185,5.185,0,0,0,1.8.986A7.757,7.757,0,0,0,11.581,20a9.908,9.908,0,0,0,2.246-.242,11.9,11.9,0,0,0,2.321-.846V15.767a5.461,5.461,0,0,1-3.023.988,2.876,2.876,0,0,1-1.517-.4,1.522,1.522,0,0,1-.686-.788,8.2,8.2,0,0,1-.184-2.233V8.205h4.749V5.066H10.738V0H7.905a7.778,7.778,0,0,1-.7,2.546A5.472,5.472,0,0,1,5.864,4.26a5.86,5.86,0,0,1-2.012,1.1V8.205h2.19Z"/>
    </symbol>
    <symbol id="icon-youtube" viewBox="0 0 20 20">
      <title>Youtube</title>
      <path d="M19.15,4.45c-.543-.965-1.131-1.143-2.33-1.21S12.611,3.125,10,3.125s-5.626.034-6.822.114S1.394,3.484.846,4.45,0,7.074,0,10v.01c0,2.91.288,4.583.846,5.537s1.136,1.139,2.333,1.221,4.21.111,6.823.111,5.62-.041,6.819-.11,1.788-.256,2.33-1.221c.564-.954.849-2.627.849-5.537V10C20,7.074,19.715,5.414,19.15,4.45ZM7.5,13.75V6.25L13.75,10Z"/>
    </symbol>
    <symbol id="icon-whatsapp" viewBox="0 0 20 20">
      <title>Whatsapp</title>
      <path d="M20,9.742A9.835,9.835,0,0,1,5.436,18.273L0,20l1.772-5.227A9.641,9.641,0,0,1,.363,9.742,9.819,9.819,0,0,1,20,9.742Zm-9.818-8.19a8.232,8.232,0,0,0-8.255,8.19,8.1,8.1,0,0,0,1.573,4.8L2.468,17.587,5.64,16.578a8.263,8.263,0,0,0,12.8-6.835A8.232,8.232,0,0,0,10.182,1.552ZM15.14,11.986c-.061-.1-.221-.159-.462-.278s-1.424-.7-1.644-.777-.382-.12-.542.119-.621.777-.762.936-.281.18-.522.06a6.577,6.577,0,0,1-1.935-1.185A7.237,7.237,0,0,1,7.934,9.208c-.14-.239-.014-.368.106-.487s.241-.279.361-.418a1.6,1.6,0,0,0,.241-.4.437.437,0,0,0-.02-.418c-.06-.12-.542-1.295-.743-1.773s-.4-.4-.541-.4-.3-.02-.461-.02a.886.886,0,0,0-.642.3,2.666,2.666,0,0,0-.842,1.991,4.629,4.629,0,0,0,.982,2.47,9.847,9.847,0,0,0,4.111,3.605c2.447.956,2.447.637,2.889.6A2.438,2.438,0,0,0,15,13.122,1.988,1.988,0,0,0,15.14,11.986Z"/>
    </symbol>
    <symbol id="icon-vimeo" viewBox="0 0 20 20">
      <title>vimeo</title>
      <path d="M19.992 5.352c-0.090 1.945-1.449 4.613-4.078 7.996-2.719 3.531-5.020 5.301-6.902 5.301-1.164 0-2.152-1.074-2.957-3.227-0.539-1.973-1.074-3.945-1.613-5.918-0.598-2.152-1.238-3.227-1.926-3.227-0.148 0-0.672 0.316-1.57 0.941l-0.941-1.211c0.988-0.867 1.961-1.734 2.918-2.602 1.316-1.137 2.305-1.734 2.965-1.797 1.555-0.148 2.516 0.914 2.875 3.191 0.387 2.457 0.656 3.984 0.809 4.582 0.449 2.039 0.941 3.059 1.48 3.059 0.418 0 1.047-0.66 1.887-1.984 0.836-1.32 1.285-2.328 1.348-3.020 0.121-1.141-0.328-1.715-1.348-1.715-0.48 0-0.973 0.109-1.48 0.328 0.984-3.219 2.859-4.781 5.633-4.691 2.051 0.055 3.020 1.387 2.902 3.992z"/>
    </symbol>
    <symbol id="icon-flickr" viewBox="0 0 20 20">
      <title>flickr2</title>
      <path d="M15.625 8.125c-1.379 0-2.5 1.121-2.5 2.5s1.121 2.5 2.5 2.5c1.379 0 2.5-1.121 2.5-2.5s-1.121-2.5-2.5-2.5zM15.625 6.25v0c2.416 0 4.375 1.959 4.375 4.375s-1.959 4.375-4.375 4.375-4.375-1.959-4.375-4.375c0-2.416 1.959-4.375 4.375-4.375zM0 10.625c0-2.416 1.959-4.375 4.375-4.375s4.375 1.959 4.375 4.375c0 2.416-1.959 4.375-4.375 4.375s-4.375-1.959-4.375-4.375z"/>
    </symbol>
    <symbol id="icon-dribbble" viewBox="0 0 20 20">
      <title>dribbble</title>
      <path d="M10 20c-5.516 0-10-4.484-10-10s4.484-10 10-10c5.516 0 10 4.484 10 10s-4.484 10-10 10v0zM18.434 11.367c-0.293-0.094-2.645-0.793-5.32-0.363 1.117 3.070 1.57 5.57 1.66 6.090 1.914-1.297 3.281-3.348 3.66-5.727v0zM13.336 17.875c-0.129-0.75-0.621-3.359-1.82-6.477-0.020 0.008-0.039 0.012-0.055 0.020-4.82 1.68-6.551 5.020-6.703 5.332 1.449 1.129 3.27 1.805 5.242 1.805 1.184 0 2.313-0.242 3.336-0.68v0zM3.652 15.723c0.195-0.332 2.539-4.211 6.941-5.637 0.109-0.035 0.223-0.070 0.336-0.102-0.215-0.484-0.449-0.973-0.691-1.449-4.262 1.277-8.402 1.223-8.777 1.219-0.004 0.086-0.004 0.172-0.004 0.262 0 2.191 0.832 4.195 2.195 5.707v0zM1.641 8.262c0.383 0.004 3.902 0.020 7.898-1.039-1.414-2.516-2.941-4.633-3.168-4.941-2.391 1.129-4.18 3.332-4.73 5.98v0zM8 1.707c0.234 0.316 1.789 2.43 3.188 5 3.039-1.137 4.324-2.867 4.477-3.086-1.508-1.34-3.492-2.152-5.664-2.152-0.688 0.004-1.359 0.086-2 0.238v0zM16.613 4.613c-0.18 0.242-1.613 2.078-4.77 3.367 0.199 0.406 0.391 0.82 0.566 1.238 0.063 0.148 0.125 0.293 0.184 0.441 2.844-0.355 5.668 0.215 5.949 0.273-0.020-2.016-0.742-3.867-1.93-5.32v0z"/>
    </symbol>
    <symbol id="icon-reddit" viewBox="0 0 20 20">
      <title>reddit</title>
      <path d="M5 12.5c0-0.69 0.56-1.25 1.25-1.25s1.25 0.56 1.25 1.25c0 0.69-0.56 1.25-1.25 1.25s-1.25-0.56-1.25-1.25zM12.5 12.5c0-0.69 0.56-1.25 1.25-1.25s1.25 0.56 1.25 1.25c0 0.69-0.56 1.25-1.25 1.25s-1.25-0.56-1.25-1.25zM12.561 15.171c0.322-0.254 0.789-0.198 1.042 0.124s0.198 0.789-0.124 1.042c-0.896 0.706-2.262 1.163-3.479 1.163s-2.583-0.456-3.479-1.163c-0.322-0.254-0.377-0.72-0.124-1.042s0.72-0.377 1.042-0.124c0.516 0.407 1.538 0.844 2.561 0.844s2.045-0.438 2.561-0.844zM20 10c0-1.381-1.119-2.5-2.5-2.5-0.94 0-1.758 0.519-2.185 1.286-1.285-0.703-2.851-1.157-4.556-1.262l1.492-3.35 2.855 0.824c0.257 0.729 0.952 1.252 1.769 1.252 1.036 0 1.875-0.839 1.875-1.875s-0.839-1.875-1.875-1.875c-0.714 0-1.335 0.399-1.651 0.987l-3.182-0.918c-0.356-0.103-0.733 0.073-0.884 0.411l-2.027 4.551c-1.663 0.117-3.189 0.567-4.446 1.255-0.427-0.767-1.245-1.285-2.185-1.285-1.381 0-2.5 1.119-2.5 2.5 0 1.022 0.613 1.899 1.492 2.287-0.158 0.469-0.242 0.959-0.242 1.463 0 3.452 3.917 6.25 8.75 6.25s8.75-2.798 8.75-6.25c0-0.504-0.084-0.993-0.242-1.463 0.878-0.388 1.492-1.266 1.492-2.287zM16.875 3.672c0.388 0 0.703 0.315 0.703 0.703s-0.315 0.703-0.703 0.703-0.703-0.315-0.703-0.703 0.315-0.703 0.703-0.703zM1.25 10c0-0.689 0.561-1.25 1.25-1.25 0.498 0 0.929 0.293 1.13 0.716-0.653 0.495-1.195 1.067-1.595 1.694-0.459-0.185-0.785-0.635-0.785-1.16zM10 18.516c-4.013 0-7.266-2.134-7.266-4.766s3.253-4.766 7.266-4.766c4.013 0 7.266 2.134 7.266 4.766s-3.253 4.766-7.266 4.766zM17.965 11.16c-0.4-0.627-0.942-1.199-1.595-1.694 0.201-0.423 0.632-0.716 1.13-0.716 0.689 0 1.25 0.561 1.25 1.25 0 0.525-0.325 0.975-0.785 1.16z"/>
    </symbol>
    <symbol id="icon-linkedin" viewBox="0 0 20 20">
      <title>linkedin</title>
      <path d="M7.5 7.5h3.459v1.773h0.049c0.481-0.863 1.659-1.773 3.415-1.773 3.651 0 4.327 2.273 4.327 5.229v6.021h-3.606v-5.337c0-1.273-0.026-2.911-1.876-2.911-1.878 0-2.164 1.386-2.164 2.818v5.43h-3.604v-11.25z"/>
      <path d="M1.25 7.5h3.75v11.25h-3.75v-11.25z"/>
      <path d="M5 4.375c0 1.036-0.839 1.875-1.875 1.875s-1.875-0.839-1.875-1.875c0-1.036 0.839-1.875 1.875-1.875s1.875 0.839 1.875 1.875z"/>
    </symbol>
    <!--<symbol id="icon-mail" viewBox="0 0 20 20">
      <path d="M20,1.589a.6.6,0,0,0-.029-.142.511.511,0,0,0-.02-.086.574.574,0,0,0-.053-.079.6.6,0,0,0-.08-.112l-.007-.009a.554.554,0,0,0-.08-.049.614.614,0,0,0-.109-.067.628.628,0,0,0-.142-.029A.671.671,0,0,0,19.4,1H.6c-.023,0-.042.01-.064.012a.593.593,0,0,0-.156.032.611.611,0,0,0-.107.065.587.587,0,0,0-.082.051L.184,1.17a.6.6,0,0,0-.08.112.574.574,0,0,0-.053.079.511.511,0,0,0-.02.086A.6.6,0,0,0,0,1.589L0,1.6V18.4a.6.6,0,0,0,.6.6H19.4a.6.6,0,0,0,.6-.6V1.6ZM18.023,2.2,10.777,9.993a1.088,1.088,0,0,1-1.554,0L1.977,2.2ZM1.2,17.8V3.126l7.144,7.683a2.26,2.26,0,0,0,3.312,0L18.8,3.126V17.8Z"/>
    </symbol>-->
    <symbol id="icon-password" viewBox="0 0 20 20">
      <path d="M16.243,6.629l-.006-.118A6.518,6.518,0,0,0,9.727,0h-.1A6.519,6.519,0,0,0,3.113,6.511v.12A2.834,2.834,0,0,0,.6,9.439v7.719A2.844,2.844,0,0,0,3.441,20H15.934a2.844,2.844,0,0,0,2.84-2.842V9.439A2.834,2.834,0,0,0,16.243,6.629ZM9.624,1.2h.1a5.323,5.323,0,0,1,5.311,5.337l0,.062H4.312V6.511A5.318,5.318,0,0,1,9.624,1.2Zm7.951,15.959A1.644,1.644,0,0,1,15.934,18.8H3.441A1.644,1.644,0,0,1,1.8,17.158V9.439A1.644,1.644,0,0,1,3.441,7.8H15.934a1.644,1.644,0,0,1,1.641,1.642Z"/>
      <polygon points="6.807 11.887 5.765 12.494 5.765 11.29 5.005 11.29 5.005 12.494 3.963 11.887 3.583 12.549 4.614 13.146 3.583 13.742 3.963 14.404 5.005 13.808 5.005 15.001 5.765 15.001 5.765 13.808 6.807 14.404 7.187 13.742 6.145 13.146 7.187 12.549 6.807 11.887"/>
      <polygon points="11.277 11.887 10.235 12.494 10.235 11.29 9.476 11.29 9.476 12.494 8.434 11.887 8.054 12.549 9.085 13.146 8.054 13.742 8.434 14.404 9.476 13.808 9.476 15.001 10.235 15.001 10.235 13.808 11.277 14.404 11.657 13.742 10.615 13.146 11.657 12.549 11.277 11.887"/>
      <polygon points="15.748 11.887 14.706 12.494 14.706 11.29 13.946 11.29 13.946 12.494 12.904 11.887 12.524 12.549 13.556 13.146 12.524 13.742 12.904 14.404 13.946 13.808 13.946 15.001 14.706 15.001 14.706 13.808 15.748 14.404 16.128 13.742 15.086 13.146 16.128 12.549 15.748 11.887"/>
    </symbol>
    <symbol id="icon-pin" viewBox="0 0 20 20">
      <path d="M10,.045a7.7,7.7,0,0,0-7.69,7.69,7.59,7.59,0,0,0,1.5,4.565l5.711,7.421a.6.6,0,0,0,.951,0l5.386-7,.341-.435A7.617,7.617,0,0,0,17.69,7.735,7.7,7.7,0,0,0,10,.045Zm5.248,11.508L10,18.371,4.772,11.578A6.4,6.4,0,0,1,3.51,7.735a6.49,6.49,0,1,1,12.98,0A6.414,6.414,0,0,1,15.248,11.553Z"/>
      <path d="M10,3.683a4.053,4.053,0,1,0,4.053,4.053A4.057,4.057,0,0,0,10,3.683Zm0,6.906a2.854,2.854,0,1,1,2.853-2.853A2.856,2.856,0,0,1,10,10.589Z"/>
    </symbol>
    <!--icon categories-->
	<symbol id="icon-promo" viewBox="0 0 1000 1000">
	  <g>
		<path d="M530.3,990L10,469.7L469.8,10H990v520.2L530.3,990L530.3,990z M69.3,469.7l461.1,461l417.8-417.9V51.9h-461L69.3,469.7L69.3,469.7z"/>
		<path d="M358.9,553.9c-5.3,0-10.7-2-14.8-6.1c-8.2-8.2-8.2-21.4,0-29.6l241.2-241.1c8.2-8.2,21.4-8.2,29.6,0c8.2,8.2,8.2,21.4,0,29.6L373.7,547.8C369.6,551.8,364.3,553.9,358.9,553.9L358.9,553.9z"/>
		<path d="M467,662c-5.3,0-10.7-2-14.8-6.1c-8.2-8.2-8.2-21.4,0-29.6l241.2-241.1c8.2-8.2,21.4-8.2,29.6,0c8.2,8.2,8.2,21.4,0,29.6L481.8,655.9C477.7,659.9,472.4,662,467,662L467,662z"/>
		<path d="M782.2,296.2c-21,0-40.7-8.1-55.5-23c-30.5-30.6-30.5-80.4,0-110.9c29.6-29.6,81.4-29.7,111.1,0c30.5,30.6,30.5,80.3,0,110.9C822.9,288.1,803.2,296.2,782.2,296.2L782.2,296.2z M782.2,181.2c-9.7,0-18.9,3.8-25.8,10.7c-14.3,14.3-14.3,37.5,0,51.8c13.7,13.8,37.9,13.8,51.6,0c14.2-14.3,14.2-37.5,0-51.7C801.2,185,792,181.2,782.2,181.2L782.2,181.2z"/>
	  </g>
	</symbol>
    <symbol id="icon-1390" viewBox="0 0 20 20">
      <title>arredo</title>
      <path d="M17.61,12.09a.49.49,0,0,0,.39-.48A3.25,3.25,0,0,0,16.53,8.9V2.5A2.5,2.5,0,0,0,14,0H6.09a2.5,2.5,0,0,0-2.5,2.5V8.84A3.22,3.22,0,0,0,2,11.61a.49.49,0,0,0,.41.48l-.86,7.35A.5.5,0,0,0,2,20H3a.5.5,0,0,0,.48-.35l2.37-7.54H14.2l2.36,7.54A.5.5,0,0,0,17,20H18a.5.5,0,0,0,.5-.56ZM4.59,2.5A1.5,1.5,0,0,1,6.09,1H14a1.5,1.5,0,0,1,1.5,1.5v6a3.25,3.25,0,0,0-.77-.1H5.23a3.39,3.39,0,0,0-.64.06Zm.64,6.88h9.53a2.24,2.24,0,0,1,2.18,1.73H3.05A2.24,2.24,0,0,1,5.23,9.38ZM2.6,19h0l.8-6.89H4.76Zm12.65-6.89H16.6L17.4,19Z"/>
    </symbol>
    <symbol id="icon-2718" viewBox="0 0 20 20">
      <title>bagno</title>
      <path d="M4.4,9.23v-6a2.23,2.23,0,0,1,4.46,0v.9h1v-.9a3.23,3.23,0,1,0-6.46,0v6H0V11a6.51,6.51,0,0,0,5.4,6.4A3.15,3.15,0,0,0,8.47,20h3.1a3.15,3.15,0,0,0,3.09-2.57A6.51,6.51,0,0,0,20,11V9.23ZM11.57,19H8.47a2.15,2.15,0,0,1-2-1.46H13.6A2.16,2.16,0,0,1,11.57,19ZM19,11a5.5,5.5,0,0,1-5.5,5.5h-7A5.51,5.51,0,0,1,1,11v-.81H19Z"/>
    </symbol>
    <symbol id="icon-2719" viewBox="0 0 20 20">
      <title>cucina</title>
      <circle cx="16.09" cy="17.34" r="0.47"/>
      <circle cx="17.81" cy="17.34" r="0.47"/>
      <path d="M20,14.69,13.2,6.83h0V0H6.78V6.75h.08L0,14.69V20H20Zm-7.4-7,5.8,6.69H1.57l5.8-6.69ZM12.22,1V6.69H7.78V1ZM1,19V15.38H19V19Z"/>
      <rect x="2.39" y="16.84" width="3.06" height="1"/>
    </symbol>
    <symbol id="icon-1688" viewBox="0 0 20 20">
      <title>outdoor</title>
      <path d="M19.76,5.69,10.26.07a.52.52,0,0,0-.51,0L.25,5.69A.49.49,0,0,0,0,6.25a.49.49,0,0,0,.48.37H5.27L9.5,10.85V19h-3a.5.5,0,1,0,0,1h7.1a.5.5,0,0,0,0-1H10.5V10.8l4.18-4.18H19.5a.5.5,0,0,0,.26-.93ZM6.69,6.62H9.5V9.43ZM10.5,9.38V6.62h2.77ZM2.33,5.62,10,1.08l7.67,4.54Z"/>
    </symbol>
    <symbol id="icon-1391" viewBox="0 0 20 20">
      <title>ufficio</title>
      <path d="m18.136 8.449c-0.276 0-0.5 0.224-0.5 0.5v3.456c0 0.275-0.225 0.5-0.5 0.5h-0.407v-0.498c0-0.276-0.224-0.5-0.5-0.5h-5.625v-0.889h3.186c0.872 0 1.66-0.362 2.22-1.021 0.632-0.745 0.896-1.777 0.722-2.831l-0.772-4.678c-0.229-1.395-1.557-2.488-3.022-2.488h-5.667c-1.465 0-2.793 1.093-3.023 2.488l-0.771 4.677c-0.174 1.054 0.09 2.086 0.722 2.831 0.56 0.658 1.348 1.021 2.221 1.021h3.185v0.889h-5.626c-0.276 0-0.5 0.224-0.5 0.5v0.498h-0.364c-0.275 0-0.5-0.225-0.5-0.5v-3.455c0-0.276-0.224-0.5-0.5-0.5s-0.5 0.224-0.5 0.5v3.456c0 0.827 0.673 1.5 1.5 1.5h0.388c0.113 0.639 0.67 1.127 1.34 1.127h4.761v1.602c-0.937 0.102-1.802 0.523-2.464 1.172-0.115-0.038-0.233-0.073-0.36-0.073-0.636 0-1.152 0.516-1.152 1.152s0.516 1.152 1.152 1.152 1.152-0.516 1.152-1.152c0-0.136-0.034-0.262-0.077-0.383 0.58-0.562 1.362-0.901 2.194-0.901 0.816 0 1.581 0.32 2.157 0.863-0.042 0.12-0.077 0.245-0.077 0.379 0 0.636 0.516 1.152 1.152 1.152s1.152-0.516 1.152-1.152-0.516-1.152-1.152-1.152c-0.128 0-0.246 0.034-0.361 0.073-0.631-0.606-1.438-1.007-2.316-1.125v-1.607h4.761c0.67 0 1.227-0.488 1.34-1.127h0.431c0.827 0 1.5-0.673 1.5-1.5v-3.456c0-0.277-0.224-0.5-0.5-0.5zm-13.175 0.9c-0.442-0.521-0.624-1.258-0.498-2.022l0.772-4.677c0.152-0.925 1.047-1.65 2.036-1.65h5.667c0.989 0 1.884 0.725 2.036 1.649l0.771 4.678c0.126 0.764-0.056 1.501-0.498 2.021-0.366 0.432-0.884 0.669-1.457 0.669h-7.37c-0.575 1e-3 -1.093-0.236-1.459-0.668zm10.768 4.317c0 0.201-0.163 0.365-0.364 0.365h-10.522c-0.201 0-0.364-0.164-0.364-0.365v-0.76h11.25v0.76z"/>
    </symbol>
    <symbol id="icon-2720" viewBox="0 0 20 20">
      <title>contract</title>
      <path d="M17.29,0H3.21a.5.5,0,0,0-.5.5V18.21a.5.5,0,0,0,.5.5h.57V19a1,1,0,0,0,1,1h.53a1,1,0,0,0,1-1v-.25h7.51V19a1,1,0,0,0,1,1h.53a1,1,0,0,0,1-1v-.25h.94a.5.5,0,0,0,.5-.5V.46A.5.5,0,0,0,17.29,0Zm-.5,1V8.88H3.71V1ZM3.71,17.71V9.88H16.79v7.83Z"/>
      <rect x="9.37" y="11.37" width="1.79" height="1.79" rx="0.45" ry="0.45"/>
    </symbol>
    <symbol id="icon-1691" viewBox="0 0 20 20">
      <title>illuminazione</title>
      <path d="M20,10A10,10,0,0,0,0,10H9.5v9s0,0,0,.06H6.36a.5.5,0,1,0,0,1h7.28a.5.5,0,0,0,0-1H10.49s0,0,0-.06V10h3.66v3.22a.5.5,0,0,0,.5.5.5.5,0,0,0,.5-.5V10ZM10,1a9,9,0,0,1,8.94,8H1.06A9,9,0,0,1,10,1Z"/>
    </symbol>
    <symbol id="icon-2659" viewBox="0 0 20 20">
      <title>wellness</title>
      <path d="M16.737,20.018l0.003-0.009L16.742,20c0.9-0.001,1.715-0.367,2.304-0.957S20,17.637,20,16.737 c0-0.59-0.158-1.141-0.433-1.616s-0.668-0.875-1.137-1.161l0.002-0.006l0.002-0.006c0,0-0.262-0.146-0.707-0.393 s-1.072-0.593-1.803-0.993l0.853-3.897l0.853-3.897l1.152-1.988l1.152-1.988c0.069-0.119,0.083-0.256,0.051-0.379 s-0.113-0.235-0.232-0.304c-0.119-0.069-0.255-0.083-0.379-0.051s-0.235,0.113-0.305,0.233l-1.092,1.886l-1.092,1.886h-2.001H12.88 c-0.138,0-0.263,0.056-0.354,0.146S12.38,4.424,12.38,4.562s0.056,0.263,0.146,0.354s0.215,0.146,0.354,0.146h1.831h1.831 l-0.767,3.5l-0.767,3.5c-0.984-0.536-2.079-1.128-3.139-1.69S9.783,9.277,8.934,8.856C8.497,8.605,8.026,8.407,7.529,8.271 s-1.02-0.208-1.56-0.208c-0.028,0-0.056,0.002-0.084,0.004S5.829,8.07,5.8,8.071L5.448,6.16L5.096,4.249h1.095h1.095 c0.138,0,0.263-0.056,0.354-0.146s0.146-0.215,0.146-0.354S7.73,3.486,7.639,3.395S7.424,3.249,7.286,3.249H4.265H1.245 c-0.138,0-0.263,0.056-0.354,0.146S0.745,3.611,0.745,3.749s0.056,0.263,0.146,0.354s0.215,0.146,0.354,0.146h1.417h1.417 L4.44,6.214l0.362,1.965c-1.369,0.271-2.569,1.01-3.428,2.044S0,12.583,0,14.031c0,1.648,0.668,3.14,1.748,4.221S4.321,20,5.969,20 M5.969,19c-1.37,0-2.612-0.557-3.512-1.457S1,15.401,1,14.031s0.557-2.612,1.457-3.512s2.142-1.457,3.512-1.457 c0.431,0,0.86,0.057,1.275,0.168S8.06,9.507,8.436,9.723l0.013,0.008l0.013,0.008l0.014,0.007L8.49,9.752 c1.454,0.722,3.457,1.788,5.244,2.757s3.361,1.84,3.957,2.171l0.108,0.066l0.108,0.066c0.342,0.209,0.615,0.493,0.802,0.823 S19,16.343,19,16.737c0,0.623-0.253,1.188-0.663,1.598S17.363,18.999,16.74,19"/>
      <path d="M5.979,11.594c-0.669,0-1.276,0.272-1.715,0.712s-0.712,1.046-0.712,1.715s0.272,1.276,0.712,1.715 s1.046,0.712,1.715,0.712s1.276-0.272,1.715-0.712s0.712-1.046,0.712-1.715s-0.272-1.276-0.712-1.715S6.648,11.594,5.979,11.594z M5.979,15.447c-0.394,0-0.75-0.16-1.009-0.418s-0.418-0.615-0.418-1.009s0.16-0.75,0.418-1.009s0.615-0.418,1.009-0.418 s0.75,0.16,1.009,0.418s0.418,0.615,0.418,1.009s-0.16,0.75-0.418,1.009S6.373,15.447,5.979,15.447z"/>
    </symbol>
    <symbol id="icon-2723" viewBox="0 0 20 20">
      <title>decor</title>
      <path d="M19.93,16.66,16.67.48a.51.51,0,0,0-.59-.39L3.91,2.54l-.05,0-.12,0-.05.05a.3.3,0,0,0-.08.08l0,0,0,.06,0,.07L0,14.18a.49.49,0,0,0,.05.41.5.5,0,0,0,.34.23l5.64.93.72,3.56a.5.5,0,0,0,.49.4h.1l12.17-2.45a.5.5,0,0,0,.31-.22A.49.49,0,0,0,19.93,16.66ZM2.42,9.84l.31.12a6.31,6.31,0,0,0,.84.26,5.33,5.33,0,0,0,.87.13,3.72,3.72,0,0,1,.55.07l.19,1-.39,0a5.6,5.6,0,0,1-.92-.13A4.89,4.89,0,0,1,3,11a5.78,5.78,0,0,0-.82-.26ZM3.9,5.05l.87,4.33-.26,0a4.06,4.06,0,0,1-.72-.11A3.75,3.75,0,0,1,3.11,9a3.37,3.37,0,0,0-.39-.14ZM5.42,7.53a4,4,0,0,1,1,0A4.58,4.58,0,0,0,8.1,7.47a4.94,4.94,0,0,0,1.6-.59A3.86,3.86,0,0,1,11,6.39a4.08,4.08,0,0,1,1.4-.06,4.64,4.64,0,0,0,1.7-.07,5,5,0,0,0,1.59-.59,3.71,3.71,0,0,1,.91-.39l1.31,6.49a4.85,4.85,0,0,0-1.19.49,4,4,0,0,1-1.31.49,3.84,3.84,0,0,1-1.4.06,5.13,5.13,0,0,0-1.7.07,5.19,5.19,0,0,0-1.6.59A3.86,3.86,0,0,1,9.41,14,3.79,3.79,0,0,1,8,14a4.62,4.62,0,0,0-1.29,0Zm11-3.23a5.21,5.21,0,0,0-1.19.49,4,4,0,0,1-1.31.49,4.08,4.08,0,0,1-1.4.06,4.64,4.64,0,0,0-1.7.07A5,5,0,0,0,9.22,6a4,4,0,0,1-1.31.49,4.08,4.08,0,0,1-1.4.06,4.55,4.55,0,0,0-1.28,0L5,5.45a4,4,0,0,1,1,0,5.07,5.07,0,0,0,1.69-.07,4.9,4.9,0,0,0,1.6-.6,3.89,3.89,0,0,1,1.31-.48A3.84,3.84,0,0,1,12,4.25a4.94,4.94,0,0,0,1.7-.08,4.73,4.73,0,0,0,1.59-.59,4.15,4.15,0,0,1,.91-.38ZM6.93,15a4,4,0,0,1,1,0,4.63,4.63,0,0,0,1.7-.07,5,5,0,0,0,1.6-.59,3.86,3.86,0,0,1,1.31-.49,4,4,0,0,1,1.39-.06,4.63,4.63,0,0,0,1.7-.07,4.94,4.94,0,0,0,1.6-.59,3.4,3.4,0,0,1,.91-.39l.22,1.1a4.8,4.8,0,0,0-1.19.5,4,4,0,0,1-1.31.48,3.84,3.84,0,0,1-1.4.06,4.93,4.93,0,0,0-1.7.08,4.71,4.71,0,0,0-1.6.59A3.89,3.89,0,0,1,9.83,16a3.79,3.79,0,0,1-1.39.06,5.56,5.56,0,0,0-1.29,0ZM15.78,1.17,16,2.22a5.21,5.21,0,0,0-1.19.49,3.76,3.76,0,0,1-1.31.48,3.63,3.63,0,0,1-1.4.06,4.94,4.94,0,0,0-1.7.08,5,5,0,0,0-1.59.59,3.76,3.76,0,0,1-1.31.48,3.84,3.84,0,0,1-1.4.06,5.47,5.47,0,0,0-1.28,0l-.22-1ZM1.15,13.93l.71-2.28a5,5,0,0,1,.74.24,6.53,6.53,0,0,0,1,.32,6.32,6.32,0,0,0,1.08.16,3.87,3.87,0,0,1,.66.08l.46,2.26Zm6.51,4.69-.31-1.53a3.91,3.91,0,0,1,1,0A4.93,4.93,0,0,0,10,17a4.71,4.71,0,0,0,1.6-.59A3.89,3.89,0,0,1,12.94,16a3.79,3.79,0,0,1,1.39-.06,4.93,4.93,0,0,0,1.7-.08,4.71,4.71,0,0,0,1.6-.59,4.19,4.19,0,0,1,.91-.39l.31,1.53Z"/>
    </symbol>
    <symbol id="icon-1392" viewBox="0 0 20 20">
      <title>finiture</title>
      <path d="M19.57,19h-2.9V.5a.5.5,0,0,0-.5-.5h-13a.5.5,0,0,0-.5.5V19H.57a.5.5,0,0,0,0,1h19a.5.5,0,0,0,0-1ZM3.67,1h12V19h-12Z"/>
      <path d="M13.34,8.41a.51.51,0,0,0-.5.5V11.6a.5.5,0,0,0,.5.5.5.5,0,0,0,.5-.5V8.91A.5.5,0,0,0,13.34,8.41Z"/>
    </symbol>
    <symbol id="icon-1393" viewBox="0 0 20 20">
      <title>edilizia</title>
      <path d="M14.53,5.84h0L9.16.48A.49.49,0,0,0,8.8.33a.47.47,0,0,0-.35.15l0,0C4.33.92,1.47,2.64,1.47,4.7a2.7,2.7,0,0,0,.87,1.88L.68,8.24a2.55,2.55,0,0,0,0,3.6L6.3,17.45a2.52,2.52,0,0,0,3.59,0l6-6c0,.43.06.86.06,1.31a10.13,10.13,0,0,1-.26,2.3,5.91,5.91,0,0,1-.19.69,2,2,0,0,0,0,.24,2.1,2.1,0,0,0,2,2.16,1.91,1.91,0,0,0,1.38-.58,1.25,1.25,0,0,0,.09-.12,8.48,8.48,0,0,0,.52-1.37,9.45,9.45,0,0,0,.4-2.76C19.87,9,17.06,5.93,14.53,5.84ZM2.47,4.7c0-1.29,2-2.5,4.78-3L3,5.89A1.75,1.75,0,0,1,2.47,4.7Zm13.19,5.57L9.18,16.74a1.55,1.55,0,0,1-2.17,0L1.39,11.13A1.55,1.55,0,0,1,1.39,9L3.12,7.22A12.28,12.28,0,0,0,9,9a1.4,1.4,0,1,0-.07-1A11.34,11.34,0,0,1,3.83,6.51l5-5,5.13,5.13h0a6.48,6.48,0,0,1,1.75,3.56S15.67,10.25,15.66,10.27Zm2.85,5.54a7.28,7.28,0,0,1-.42,1.12.91.91,0,0,1-.61.23,1.11,1.11,0,0,1-1-1.09,5.28,5.28,0,0,0,.21-.78,10.36,10.36,0,0,0,.29-2.52,10.73,10.73,0,0,0-1.35-5.65c1.71.8,3.28,3.22,3.28,6.21A8.6,8.6,0,0,1,18.51,15.81Z"/>
    </symbol>
    <symbol id="icon-1695" viewBox="0 0 20 20">
      <title>lifestyle</title>
      <path d="M19.92,13.87a2.38,2.38,0,0,0-.72-.82s.06-.06.08-.11A9.75,9.75,0,1,0,.78,12.8a.48.48,0,0,0,.1.17l-.32.26c-.18.17-.75.68-.54,1.23L1.36,18c.18.45.71.51,1.05.51H2.6a5.28,5.28,0,0,0,.68-.09,1.87,1.87,0,0,0,1.54.85,2,2,0,0,0,.67-.12L5.71,19a1.85,1.85,0,0,0,1.06-2.4l-2-5.33a1.87,1.87,0,0,0-1-1,1.8,1.8,0,0,0-1.42,0l-.22.08a1.84,1.84,0,0,0-.73.52A9.1,9.1,0,0,1,1.3,9.76a8.76,8.76,0,0,1,17.51,0A9.39,9.39,0,0,1,18.72,11a1.86,1.86,0,0,0-.85-.66l-.22-.08a1.8,1.8,0,0,0-1.42,0,1.84,1.84,0,0,0-1,1L13.2,16.61A1.87,1.87,0,0,0,14.27,19l.22.09a1.93,1.93,0,0,0,.67.12,1.85,1.85,0,0,0,.76-.16,1.91,1.91,0,0,0,.8-.69,5,5,0,0,0,.66.09h.19c.33,0,.87-.06,1.05-.52L20,14.46A.73.73,0,0,0,19.92,13.87ZM2.24,17.45,1,14.22a2.17,2.17,0,0,1,.46-.43l1.39,3.64A2.6,2.6,0,0,1,2.24,17.45Zm.22-6.22.22-.09A.84.84,0,0,1,3,11.09a.84.84,0,0,1,.35.07.82.82,0,0,1,.45.48L5.84,17a.82.82,0,0,1,0,.65.85.85,0,0,1-.47.46h0l-.22.08A.86.86,0,0,1,4,17.67L2,12.34A.86.86,0,0,1,2.46,11.23Zm13.05,6.91a.84.84,0,0,1-.66,0l-.22-.08h0A.86.86,0,0,1,14.14,17l2-5.33a.89.89,0,0,1,1.12-.5l.21.09a.85.85,0,0,1,.5,1.11L16,17.67A.83.83,0,0,1,15.51,18.14Zm2.23-.69a2.7,2.7,0,0,1-.62,0l1.4-3.64a2.17,2.17,0,0,1,.46.43Z"/>
	</symbol>
	<symbol id="fal-store" xmlns="http://www.w3.org/2000/svg" viewBox="0 0 616 512">
	  <path d="M602 118.6L537.1 15C531.3 5.7 521 0 510 0H106C95 0 84.7 5.7 78.9 15L14 118.6c-29.6 47.2-10 110.6 38 130.8v227.4c0 19.4 14.3 35.2 32 35.2h448c17.7 0 32-15.8 32-35.2V249.4c48-20.2 67.6-83.6 38-130.8zm-70 358.2c0 2-.8 3.1-.2 3.2l-446.6.3c-.3-.2-1.2-1.3-1.2-3.5V352h448zM84 320v-64h2.5c29.6 0 55.8-13 73.8-33.1 18 20.1 44.3 33.1 73.8 33.1 29.6 0 55.8-13 73.8-33.1 18 20.1 44.3 33.1 73.8 33.1 29.6 0 55.8-13 73.8-33.1 18.1 20.1 44.3 33.1 73.9 33.1h2.5v64zm494.2-126.5c-7.8 16.6-22.1 27.5-39.3 29.8-3.1.4-6.2.6-9.4.6-19.3 0-37-8-50-22.5L455.7 175l-23.8 26.6c-13 14.5-30.7 22.5-50 22.5s-37-8-50-22.5L308 175l-23.8 26.6c-13 14.5-30.7 22.5-50 22.5s-37-8-50-22.5L160.3 175l-23.8 26.6c-13 14.5-30.7 22.5-50 22.5-3.2 0-6.3-.2-9.4-.6-17.2-2.3-31.5-13.2-39.3-29.8-8.7-18.6-7.5-40.8 3.3-57.9L106 32h404l64.9 103.6c10.8 17.2 12 39.3 3.3 57.9z"/>
	</symbol>
	<symbol id="fal-flag" xmlns="http://www.w3.org/2000/svg" viewBox="0 0 512 512">
	  <path d="M344.348 74.667C287.742 74.667 242.446 40 172.522 40c-28.487 0-53.675 5.322-76.965 14.449C99.553 24.713 75.808-1.127 46.071.038 21.532.999 1.433 20.75.076 45.271-1.146 67.34 12.553 86.382 32 93.258V500c0 6.627 5.373 12 12 12h8c6.627 0 12-5.373 12-12V378.398c31.423-14.539 72.066-29.064 135.652-29.064 56.606 0 101.902 34.667 171.826 34.667 51.31 0 91.933-17.238 130.008-42.953 6.589-4.45 10.514-11.909 10.514-19.86V59.521c0-17.549-18.206-29.152-34.122-21.76-36.78 17.084-86.263 36.906-133.53 36.906zM48 28c11.028 0 20 8.972 20 20s-8.972 20-20 20-20-8.972-20-20 8.972-20 20-20zm432 289.333C456.883 334.03 415.452 352 371.478 352c-63.615 0-108.247-34.667-171.826-34.667-46.016 0-102.279 10.186-135.652 26V106.667C87.117 89.971 128.548 72 172.522 72c63.615 0 108.247 34.667 171.826 34.667 45.92 0 102.217-18.813 135.652-34.667v245.333z"/>
	</symbol>
	
	<!-- 360/3D Viewer Icons -->
	<symbol id="icon-3D-Viewer" viewBox="0 0 34 32">
	  <path fill="#fff" style="fill: var(--color1, #fff)" d="M27.523 8.493c0 0 8.168 5.48 2.985 11.317-0.842 0.946-4.586 3.935-10.24 4.521v2.93c3.321-0.459 8.547-1.813 11.507-5.8 6.3-8.486-4.252-12.967-4.252-12.967z"/>
	  <path fill="#fff" style="fill: var(--color1, #fff)" d="M16.893 25.204l-3.805-3.293c-0.495-0.43-0.902-0.158-0.902 0.602v1.753c-4.893-0.892-8.114-3.478-8.889-4.353-5.221-5.89 3.007-11.42 3.007-11.42s-10.629 4.522-4.284 13.085c2.587 3.491 6.888 4.981 10.166 5.617 0 0.054 0 0.12 0 0.171v2.090c0 0.762 0.407 1.032 0.902 0.603l3.805-3.294c0.497-0.43 0.497-1.132 0-1.562z"/>
	  <path fill="#bcbcbc" style="fill: var(--color2, #bcbcbc)" d="M17.266 10.405l-7.507-4.334 7.507-4.334 7.507 4.334z"/>
	  <path fill="#fff" style="fill: var(--color1, #fff)" d="M9.759 6.071l7.507 4.334v8.668l-7.507-4.334z"/>
	  <path fill="#d7d8da" style="fill: var(--color3, #d7d8da)" d="M24.773 6.071l-7.507 4.334v8.668l7.507-4.334z"/>
	</symbol>
	<symbol id="icon-3d-mobile" viewBox="0 0 46 32">
	  <path fill="#fff" style="fill: var(--color1, #fff)" d="M8.399 2.599c0 0-10.962 7.368-4.006 15.215 1.032 1.165 5.324 4.611 11.843 5.8v0-2.335c0-1.013 0.542-1.374 1.202-0.802v0l5.070 4.388c0.663 0.572 0.663 1.508 0 2.081v0l-5.070 4.389c-0.66 0.571-1.202 0.212-1.202-0.804v0-3.013c-4.368-0.848-10.098-2.832-13.544-7.484-8.453-11.409 5.708-17.434 5.708-17.434zM36.671 2.599c0 0 14.059 5.97 5.666 17.277-3.944 5.313-10.907 7.117-15.331 7.728v0-3.904c7.533-0.781 12.521-4.763 13.643-6.023 6.905-7.777-3.977-15.078-3.977-15.078zM15.889 0c1.415 0 2.526 0.355 3.334 1.066s1.212 1.699 1.212 2.964c0 0.636-0.203 1.235-0.608 1.796s-0.93 0.985-1.572 1.27c0.779 0.266 1.371 0.685 1.777 1.256s0.608 1.253 0.608 2.044c0 1.272-0.436 2.284-1.309 3.037s-2.020 1.129-3.441 1.129c-1.363 0-2.479-0.363-3.349-1.090s-1.304-1.694-1.304-2.901v0h2.366l0.010 0.228c0.046 0.52 0.252 0.95 0.618 1.29 0.419 0.389 0.982 0.584 1.689 0.584 0.733 0 1.311-0.195 1.733-0.584s0.633-0.954 0.633-1.694c0-0.746-0.221-1.321-0.662-1.723s-1.097-0.604-1.966-0.604v0h-1.392v-1.869h1.441l0.265-0.011c0.603-0.045 1.090-0.23 1.462-0.554 0.425-0.37 0.638-0.905 0.638-1.606 0-0.675-0.177-1.199-0.531-1.572s-0.894-0.56-1.621-0.56c-0.636 0-1.158 0.183-1.567 0.55s-0.613 0.845-0.613 1.436v0h-2.366l0.012-0.308c0.047-0.607 0.236-1.167 0.567-1.678 0.386-0.597 0.925-1.063 1.616-1.397s1.465-0.501 2.322-0.501zM27.425 0.195l0.412 0.010c1.085 0.055 2.059 0.331 2.922 0.827 0.97 0.558 1.721 1.35 2.254 2.375s0.798 2.2 0.798 3.524v0 0.711l-0.010 0.442c-0.053 1.162-0.317 2.196-0.793 3.102-0.535 1.019-1.298 1.804-2.288 2.356s-2.124 0.827-3.402 0.827v0h-4.079v-14.174h4.186zM27.425 2.181h-1.723v10.222h1.606c1.291 0 2.283-0.404 2.974-1.212s1.043-1.968 1.056-3.48v0-0.789l-0.008-0.41c-0.055-1.338-0.387-2.376-0.994-3.114-0.668-0.811-1.639-1.217-2.911-1.217v0z"/>
	</symbol>
	<symbol id="icon-expand" viewBox="0 0 448 512">
	  <path d="M0 180V56c0-13.3 10.7-24 24-24h124c6.6 0 12 5.4 12 12v40c0 6.6-5.4 12-12 12H64v84c0 6.6-5.4 12-12 12H12c-6.6 0-12-5.4-12-12zM288 44v40c0 6.6 5.4 12 12 12h84v84c0 6.6 5.4 12 12 12h40c6.6 0 12-5.4 12-12V56c0-13.3-10.7-24-24-24H300c-6.6 0-12 5.4-12 12zm148 276h-40c-6.6 0-12 5.4-12 12v84h-84c-6.6 0-12 5.4-12 12v40c0 6.6 5.4 12 12 12h124c13.3 0 24-10.7 24-24V332c0-6.6-5.4-12-12-12zM160 468v-40c0-6.6-5.4-12-12-12H64v-84c0-6.6-5.4-12-12-12H12c-6.6 0-12 5.4-12 12v124c0 13.3 10.7 24 24 24h124c6.6 0 12-5.4 12-12z"/>
	</symbol>
	<symbol id="icon-close" viewBox="0 0 24 24">
	  <path d="M12.696 12l11.172-11.172c0.115-0.091 0.188-0.23 0.188-0.387 0-0.272-0.22-0.492-0.492-0.492-0.16 0-0.302 0.076-0.391 0.194l-11.173 11.185-11.172-11.184c-0.090-0.13-0.238-0.214-0.406-0.214-0.272 0-0.492 0.22-0.492 0.492 0 0.168 0.084 0.316 0.212 0.405l11.174 11.173-11.172 11.208c-0.064 0.082-0.103 0.188-0.103 0.302 0 0.257 0.198 0.469 0.45 0.49 0.003 0 0.005 0 0.007 0 0.134 0 0.256-0.055 0.343-0.144l11.16-11.148 11.172 11.184c0.089 0.089 0.212 0.144 0.348 0.144s0.259-0.055 0.348-0.144c0.089-0.089 0.144-0.212 0.144-0.348s-0.055-0.259-0.144-0.348z"/>
	</symbol>
	<symbol id="icon-ar" viewBox="0 0 22 22">
	  <path d="M9.6514904,0.193233333 L9.65092651,0.300233333 L18.3979265,5.35523333 L18.5868539,5.35575192 L18.5868539,16.2079853 L18.3999265,16.2072333 L9.65092651,21.2752333 L9.6514904,21.354481 L9.51498222,21.3545023 C9.51364083,21.3552035 9.51229368,21.3558926 9.51094093,21.3565694 L9.51392651,21.3542333 L9.51292651,21.3542333 L9.49392516,21.3642946 L9.49392516,21.3642946 L9.45746369,21.3762554 L9.45746369,21.3762554 C9.4513493,21.3778873 9.44531501,21.3791449 9.43926257,21.3801794 L9.39496476,21.3838496 L9.34092651,21.3772333 L9.32721027,21.3746746 L9.32721027,21.3746746 C9.31145801,21.3704352 9.29561721,21.364369 9.28031115,21.3565351 L9.27592651,21.3542333 L9.13975771,21.354481 L9.13892651,21.2752333 L0.378926514,16.2072333 L0.192926514,16.2079853 L0.192926514,5.35575192 L0.378926514,5.35523333 L9.13892651,0.301233333 L9.13975771,0.193233333 L9.6514904,0.193233333 Z M9.13892651,11.2212333 L0.959926514,15.9512333 L9.13892651,20.6832333 L9.13892651,11.2212333 Z M9.65092651,11.2272333 L9.65092651,20.6832333 L17.8199265,15.9508397 L9.65092651,11.2272333 Z M0.703926514,6.05483968 L0.703926514,15.5082333 L8.87892651,10.7802333 L0.703926514,6.05483968 Z M18.0739265,6.05423333 L9.90092651,10.7812333 L18.0739265,15.5062333 L18.0739265,6.05423333 Z M9.13892651,0.892233333 L0.959926515,5.61183968 L9.13892651,10.3402333 L9.13892651,0.892233333 Z M9.65092651,0.892233333 L9.65092651,10.3342333 L17.8189265,5.61123333 L9.65092651,0.892233333 Z" id="Combined-Shape" fill="#B7B7B7"/>
	  <path d="M9.39536433,17.6671846 C9.64309938,17.6671846 9.84408442,17.8681697 9.84408442,18.1163043 L9.84325646,20.3491846 L11.758437,19.2399026 C11.9726079,19.1156355 12.2475139,19.1891568 12.371781,19.4037274 C12.4960481,19.6182979 12.4225267,19.8932038 12.2079562,20.0174709 L9.61992416,21.5166675 C9.5741065,21.5435721 9.52402673,21.5614197 9.47276304,21.5703286 L9.39536433,21.577003 C9.31824681,21.577003 9.24033015,21.5570244 9.17080451,21.5170671 L6.55040707,20.0010885 C6.33583656,19.8768214 6.26231519,19.6019154 6.38698186,19.3873449 C6.51044981,19.1723748 6.78495622,19.099253 6.9999263,19.2231205 L8.94625646,20.3491846 L8.94664425,18.1163043 C8.94664425,17.8681697 9.14762929,17.6671846 9.39536433,17.6671846 Z M0.44865301,12.4914801 C0.696388053,12.4914801 0.897373096,12.6924652 0.897373096,12.9405998 L0.897014319,15.1724801 L2.82650985,14.0562066 C3.04227908,13.9319395 3.31558677,14.0054609 3.43985386,14.220431 C3.56412096,14.4350015 3.49059959,14.7099075 3.27602908,14.8341746 L1.34501432,15.9514801 L3.28062416,17.0711421 C3.49559425,17.1958088 3.56871604,17.4699156 3.44444895,17.6848857 C3.36173741,17.8291314 3.21069895,17.9094455 3.05566476,17.9094455 C2.97934639,17.9094455 2.90222886,17.8898665 2.83110493,17.8495096 L0.223893395,16.3407233 L0.20073589,16.3265923 L0.188049971,16.3178665 L0.188049971,16.3178665 L0.176728165,16.3093529 L0.176728165,16.3093529 L0.175639802,16.3086815 L0.134774884,16.2731427 L0.134774884,16.2731427 C0.126539844,16.2651192 0.117928341,16.2559626 0.109668004,16.2463909 L0.0749034644,16.2006791 L0.0749034644,16.2006791 L0.0543324973,16.166 L0.0273324973,16.104 L0.0165606535,16.0730436 L0.0165606535,16.0730436 C0.0113964941,16.0542508 0.00737486174,16.0351526 0.00459910572,16.0158444 L0.00124729421,15.9858296 L0.00124729421,15.9858296 L0.000332497349,12.9405998 C0.000332497349,12.6924652 0.20131754,12.4914801 0.44865301,12.4914801 Z M18.3287299,12.4914801 C18.576465,12.4914801 18.77745,12.6920656 18.77745,12.9402002 L18.7794503,15.9513797 L18.7793756,15.9686858 L18.777811,15.9927265 L18.777811,15.9927265 L18.7783325,15.968 L18.7753325,16.012 L18.7657542,16.0628327 C18.7652734,16.064682 18.7647604,16.066645 18.7642342,16.0686043 C18.7604087,16.0835903 18.7576676,16.0922634 18.754649,16.1008844 C18.7500519,16.1131613 18.7454394,16.1246896 18.7403738,16.1359706 L18.7287781,16.1598639 L18.7199116,16.1767387 C18.7126742,16.1884221 18.7063163,16.1983833 18.6995866,16.2080667 C18.6946152,16.2153717 18.6892783,16.222609 18.6837113,16.2296967 C18.6806248,16.2334437 18.6775507,16.237221 18.6744171,16.2409465 L18.668383,16.2464801 L18.6624051,16.2553298 L18.6427221,16.2755478 L18.6427221,16.2755478 C18.6361814,16.2813983 18.6293418,16.2876055 18.6222804,16.2936221 L18.6098417,16.3037598 L18.6098417,16.3037598 C18.5985886,16.3131745 18.5871669,16.3213499 18.5754248,16.3289528 C18.5676675,16.3336259 18.5594561,16.3386163 18.5510783,16.3433447 L15.9432013,17.8479513 C15.8728765,17.8883081 15.7953594,17.9078872 15.7198402,17.9078872 C15.5644064,17.9078872 15.413368,17.8271735 15.3302569,17.6829278 C15.2067889,17.4679577 15.2803103,17.1930517 15.4952804,17.0695838 L17.432383,15.9514801 L15.499356,14.8341746 C15.2847855,14.7103071 15.2108645,14.4354011 15.3351316,14.220431 C15.4589992,14.0054609 15.7347043,13.9327387 15.9480761,14.0562066 L17.881383,15.1734801 L17.8800093,12.9405998 C17.8796103,12.6928647 18.0805953,12.4914801 18.3283304,12.4914801 L18.3287299,12.4914801 Z M12.3865652,9.04980107 C12.5108323,9.26437158 12.4373109,9.53927756 12.2227404,9.66354466 L9.84320599,11.0400576 L9.84408442,13.7947263 C9.84408442,14.0424613 9.64309938,14.2434464 9.39536433,14.2434464 C9.14762929,14.2434464 8.94664425,14.0424613 8.94664425,13.7947263 L8.94620599,11.0420576 L6.55959724,9.66394423 C6.34502673,9.53967714 6.27150536,9.26517073 6.39537288,9.05020064 C6.52003955,8.83443141 6.79334724,8.76250833 7.00831733,8.88477756 L9.39496476,10.2633032 L11.7732212,8.88557671 C11.9889904,8.76130962 12.2622981,8.83443141 12.3865652,9.04980107 Z M3.4422513,3.88472521 C3.56611882,4.09929573 3.49219788,4.37420171 3.27762737,4.49806923 L1.3463325,5.61156331 L3.28022459,6.72948269 C3.49519468,6.85335021 3.56871604,7.1282562 3.44484852,7.34322628 C3.36173741,7.48707244 3.21069895,7.56778611 3.05566476,7.56778611 C2.97934639,7.56778611 2.90222886,7.54820705 2.83150451,7.50745064 L0.897332497,6.38956331 L0.897373096,8.62329722 C0.897373096,8.87143184 0.696388053,9.07241688 0.44865301,9.07241688 C0.20131754,9.07241688 0.000332497415,8.87143184 0.000332497415,8.62329722 L0.000332497415,5.61171816 L0.00233249735,5.571 C0.00478346411,5.54612831 0.00741641693,5.53017422 0.0108643087,5.51452695 C0.0136557479,5.5014372 0.0172953526,5.48795986 0.0215512708,5.47467353 C0.0261701554,5.46040543 0.031333888,5.44667692 0.0371298284,5.43328696 C0.0419565878,5.42199302 0.0472972527,5.4108977 0.0530958161,5.40002009 C0.0605747688,5.38618287 0.0688977811,5.37242825 0.0779094664,5.35918165 C0.0841895096,5.34968549 0.0907514326,5.34075875 0.0976615946,5.33205975 L0.116899351,5.30965392 L0.116899351,5.30965392 L0.137810297,5.28814538 C0.143330508,5.28262003 0.148921041,5.27751205 0.154660847,5.27253057 C0.170366093,5.25901139 0.18717501,5.24630444 0.204840787,5.23481006 L0.224892326,5.22249444 L0.224892326,5.22249444 L2.82970643,3.71970171 C3.0434778,3.59583419 3.31838378,3.66935556 3.4422513,3.88472521 Z M15.9448795,3.71490684 L18.5526239,5.2216557 L18.5751619,5.23547668 L18.5751619,5.23547668 C18.5874666,5.24335346 18.5997571,5.25223853 18.6116126,5.26177771 L18.6190663,5.26819531 L18.6236474,5.2727542 C18.6324323,5.27995205 18.6368081,5.28398605 18.6410902,5.28809453 L18.6503552,5.29690902 L18.6687141,5.31682819 L18.6687141,5.31682819 C18.6729864,5.32207699 18.6773487,5.32732947 18.6815917,5.33268113 C18.6887922,5.34164019 18.6958576,5.35130367 18.7025082,5.36120613 C18.7076585,5.36896563 18.7126427,5.37690068 18.7173809,5.38499768 L18.7252193,5.39890229 C18.7312354,5.41009662 18.7367649,5.42152502 18.7417984,5.43315257 L18.7185131,5.38691859 C18.7371621,5.41923958 18.7513566,5.45289242 18.761287,5.48716946 C18.7630488,5.49354986 18.7647316,5.49988975 18.766276,5.5062641 C18.7688013,5.51629223 18.7709231,5.52661434 18.7726741,5.53696168 L18.7763839,5.56424498 C18.7769656,5.56963762 18.7774505,5.57504381 18.7778379,5.58046081 L18.7785086,5.60037889 L18.7790483,8.62329722 C18.7790483,8.87143184 18.5780633,9.07241688 18.3307278,9.07241688 C18.0829928,9.07241688 17.8820077,8.87143184 17.8820077,8.62329722 L17.8806474,6.3897542 L15.949075,7.50745064 C15.8783507,7.54820705 15.8012331,7.56778611 15.7249148,7.56778611 C15.5698806,7.56778611 15.4188421,7.48747201 15.3361306,7.34322628 C15.2118635,7.1282562 15.2849853,6.85374979 15.5003549,6.72948269 L17.4316474,5.6117542 L15.4961594,4.49287479 C15.2815889,4.36900726 15.2080675,4.09450085 15.3315355,3.87953077 C15.4562022,3.66456068 15.7311081,3.59103932 15.9448795,3.71490684 Z M9.3953325,2.11682523e-14 L9.4533325,0.004 L9.4453325,0.003 L9.4515126,0.00348258977 L9.4553325,0.004 L9.4563325,0.004 L9.50558992,0.0136521149 L9.50558992,0.0136521149 C9.51856704,0.0171776345 9.53217594,0.021308938 9.54561825,0.0261026367 C9.5641665,0.0324194054 9.58168824,0.0399883965 9.59859266,0.0485980129 C9.60537021,0.0523455332 9.6128306,0.0563875086 9.62020386,0.0606551282 L12.2226205,1.56704402 C12.4375906,1.69131111 12.5107124,1.96581752 12.3868449,2.18078761 C12.3033342,2.32463376 12.1526953,2.40534744 11.9976611,2.40534744 C11.9217423,2.40534744 11.8442252,2.38576838 11.7731013,2.34461239 L9.84320159,1.228 L9.84408442,3.73280769 C9.84408442,3.98094231 9.64309938,4.18192735 9.39536433,4.18192735 C9.14762929,4.18192735 8.94664425,3.98094231 8.94664425,3.73280769 L8.94620159,1.226 L7.00819745,2.34501197 C6.79322737,2.46887949 6.51912053,2.39535812 6.39525301,2.18038803 C6.27138549,1.96541795 6.34530643,1.69051197 6.56027651,1.56664444 L9.16358774,0.064475752 L9.20436849,0.0426009143 L9.20436849,0.0426009143 L9.22641479,0.033261032 L9.22641479,0.033261032 L9.17148378,0.0602555556 L9.2333325,0.031 L9.28371121,0.0142374515 L9.28371121,0.0142374515 C9.29886702,0.0101082937 9.31494276,0.00688402688 9.33130256,0.00454309302 C9.34558572,0.00262674341 9.35931826,0.00130519999 9.37307814,0.00062090352 L9.3953325,2.11682523e-14 Z" id="Combined-Shape" stroke="#313131" stroke-width="0.5" fill="#313131"/>
	</symbol>
      
  </defs>
</svg>